<svg viewBox="0 0 480 320" xmlns="http://www.w3.org/2000/svg" font-family="ui-monospace,SFMono-Regular,Menlo,Consolas,monospace">
<rect x="0" y="0" width="480" height="320" fill="#fffef9"/>
<line x1="56.0" y1="28" x2="56.0" y2="276" stroke="#1c201f1f" stroke-width="1"/>
<line x1="156.0" y1="28" x2="156.0" y2="276" stroke="#1c201f1f" stroke-width="1"/>
<line x1="256.0" y1="28" x2="256.0" y2="276" stroke="#1c201f1f" stroke-width="1"/>
<line x1="356.0" y1="28" x2="356.0" y2="276" stroke="#1c201f1f" stroke-width="1"/>
<line x1="456.0" y1="28" x2="456.0" y2="276" stroke="#1c201f1f" stroke-width="1"/>
<line x1="56" y1="276.0" x2="456" y2="276.0" stroke="#1c201f1f" stroke-width="1"/>
<line x1="56" y1="219.6" x2="456" y2="219.6" stroke="#1c201f1f" stroke-width="1"/>
<line x1="56" y1="163.3" x2="456" y2="163.3" stroke="#1c201f1f" stroke-width="1"/>
<line x1="56" y1="106.9" x2="456" y2="106.9" stroke="#1c201f1f" stroke-width="1"/>
<line x1="56" y1="50.5" x2="456" y2="50.5" stroke="#1c201f1f" stroke-width="1"/>
<line x1="56.0" y1="28" x2="56.0" y2="276" stroke="#1c201f4a" stroke-width="1.4"/>
<line x1="56" y1="276.0" x2="456" y2="276.0" stroke="#1c201f4a" stroke-width="1.4"/>
<rect x="56" y="28" width="400" height="248" fill="none" stroke="#1c201f4a" stroke-width="1"/>
<text x="56.0" y="292" font-size="10" fill="#565f5b" text-anchor="middle">0</text>
<text x="156.0" y="292" font-size="10" fill="#565f5b" text-anchor="middle">50</text>
<text x="256.0" y="292" font-size="10" fill="#565f5b" text-anchor="middle">100</text>
<text x="356.0" y="292" font-size="10" fill="#565f5b" text-anchor="middle">150</text>
<text x="456.0" y="292" font-size="10" fill="#565f5b" text-anchor="middle">200</text>
<text x="48" y="279.0" font-size="10" fill="#565f5b" text-anchor="end">0</text>
<text x="48" y="222.6" font-size="10" fill="#565f5b" text-anchor="end">0.25</text>
<text x="48" y="166.3" font-size="10" fill="#565f5b" text-anchor="end">0.5</text>
<text x="48" y="109.9" font-size="10" fill="#565f5b" text-anchor="end">0.75</text>
<text x="48" y="53.5" font-size="10" fill="#565f5b" text-anchor="end">1</text>
<text x="256.0" y="308" font-size="11" fill="#565f5b" text-anchor="middle">training step (constant gradient magnitude)</text>
<text x="16" y="152.0" font-size="11" fill="#565f5b" text-anchor="middle" transform="rotate(-90 16 152.0)">effective step size</text>
<polyline points="56.00,50.55 58.00,116.58 60.00,145.83 62.00,163.27 64.00,175.17 66.00,183.96 68.00,190.79 70.00,196.29 72.00,200.85 74.00,204.71 76.00,208.02 78.00,210.92 80.00,213.47 82.00,215.74 84.00,217.79 86.00,219.64 88.00,221.32 90.00,222.86 92.00,224.28 94.00,225.59 96.00,226.80 98.00,227.93 100.00,228.99 102.00,229.98 104.00,230.91 106.00,231.78 108.00,232.61 110.00,233.39 112.00,234.13 114.00,234.84 116.00,235.51 118.00,236.14 120.00,236.75 122.00,237.33 124.00,237.89 126.00,238.42 128.00,238.94 130.00,239.43 132.00,239.90 134.00,240.35 136.00,240.79 138.00,241.21 140.00,241.62 142.00,242.01 144.00,242.39 146.00,242.76 148.00,243.11 150.00,243.46 152.00,243.79 154.00,244.12 156.00,244.43 158.00,244.74 160.00,245.03 162.00,245.32 164.00,245.60 166.00,245.87 168.00,246.14 170.00,246.40 172.00,246.65 174.00,246.89 176.00,247.13 178.00,247.37 180.00,247.60 182.00,247.82 184.00,248.04 186.00,248.25 188.00,248.46 190.00,248.66 192.00,248.86 194.00,249.05 196.00,249.24 198.00,249.43 200.00,249.61 202.00,249.79 204.00,249.97 206.00,250.14 208.00,250.31 210.00,250.47 212.00,250.63 214.00,250.79 216.00,250.95 218.00,251.10 220.00,251.25 222.00,251.40 224.00,251.55 226.00,251.69 228.00,251.83 230.00,251.97 232.00,252.10 234.00,252.24 236.00,252.37 238.00,252.49 240.00,252.62 242.00,252.75 244.00,252.87 246.00,252.99 248.00,253.11 250.00,253.23 252.00,253.34 254.00,253.45 256.00,253.57 258.00,253.68 260.00,253.79 262.00,253.89 264.00,254.00 266.00,254.10 268.00,254.20 270.00,254.31 272.00,254.41 274.00,254.50 276.00,254.60 278.00,254.70 280.00,254.79 282.00,254.88 284.00,254.98 286.00,255.07 288.00,255.16 290.00,255.25 292.00,255.33 294.00,255.42 296.00,255.50 298.00,255.59 300.00,255.67 302.00,255.75 304.00,255.83 306.00,255.91 308.00,255.99 310.00,256.07 312.00,256.15 314.00,256.23 316.00,256.30 318.00,256.38 320.00,256.45 322.00,256.52 324.00,256.60 326.00,256.67 328.00,256.74 330.00,256.81 332.00,256.88 334.00,256.95 336.00,257.01 338.00,257.08 340.00,257.15 342.00,257.21 344.00,257.28 346.00,257.34 348.00,257.40 350.00,257.47 352.00,257.53 354.00,257.59 356.00,257.65 358.00,257.71 360.00,257.77 362.00,257.83 364.00,257.89 366.00,257.95 368.00,258.01 370.00,258.06 372.00,258.12 374.00,258.18 376.00,258.23 378.00,258.29 380.00,258.34 382.00,258.39 384.00,258.45 386.00,258.50 388.00,258.55 390.00,258.61 392.00,258.66 394.00,258.71 396.00,258.76 398.00,258.81 400.00,258.86 402.00,258.91 404.00,258.96 406.00,259.01 408.00,259.05 410.00,259.10 412.00,259.15 414.00,259.20 416.00,259.24 418.00,259.29 420.00,259.33 422.00,259.38 424.00,259.42 426.00,259.47 428.00,259.51 430.00,259.56 432.00,259.60 434.00,259.64 436.00,259.69 438.00,259.73 440.00,259.77 442.00,259.81 444.00,259.85 446.00,259.90 448.00,259.94 450.00,259.98 452.00,260.02 454.00,260.06" fill="none" stroke="#a8641a" stroke-width="2.6" stroke-linecap="round" stroke-linejoin="round"/>
<polyline points="56.00,-436.95 58.00,-241.23 60.00,-157.09 62.00,-108.45 64.00,-76.31 66.00,-53.36 68.00,-36.14 70.00,-22.74 72.00,-12.06 74.00,-3.36 76.00,3.83 78.00,9.85 80.00,14.94 82.00,19.28 84.00,23.00 86.00,26.22 88.00,29.01 90.00,31.45 92.00,33.58 94.00,35.45 96.00,37.10 98.00,38.55 100.00,39.84 102.00,40.98 104.00,41.99 106.00,42.89 108.00,43.69 110.00,44.40 112.00,45.04 114.00,45.61 116.00,46.12 118.00,46.57 120.00,46.98 122.00,47.34 124.00,47.67 126.00,47.96 128.00,48.22 130.00,48.46 132.00,48.67 134.00,48.86 136.00,49.03 138.00,49.18 140.00,49.32 142.00,49.44 144.00,49.56 146.00,49.65 148.00,49.74 150.00,49.82 152.00,49.90 154.00,49.96 156.00,50.02 158.00,50.07 160.00,50.12 162.00,50.16 164.00,50.20 166.00,50.24 168.00,50.27 170.00,50.29 172.00,50.32 174.00,50.34 176.00,50.36 178.00,50.38 180.00,50.40 182.00,50.41 184.00,50.43 186.00,50.44 188.00,50.45 190.00,50.46 192.00,50.47 194.00,50.47 196.00,50.48 198.00,50.49 200.00,50.49 202.00,50.50 204.00,50.50 206.00,50.51 208.00,50.51 210.00,50.52 212.00,50.52 214.00,50.52 216.00,50.52 218.00,50.53 220.00,50.53 222.00,50.53 224.00,50.53 226.00,50.53 228.00,50.53 230.00,50.53 232.00,50.54 234.00,50.54 236.00,50.54 238.00,50.54 240.00,50.54 242.00,50.54 244.00,50.54 246.00,50.54 248.00,50.54 250.00,50.54 252.00,50.54 254.00,50.54 256.00,50.54 258.00,50.54 260.00,50.54 262.00,50.54 264.00,50.54 266.00,50.54 268.00,50.54 270.00,50.54 272.00,50.54 274.00,50.54 276.00,50.54 278.00,50.54 280.00,50.54 282.00,50.54 284.00,50.54 286.00,50.54 288.00,50.54 290.00,50.55 292.00,50.55 294.00,50.55 296.00,50.55 298.00,50.55 300.00,50.55 302.00,50.55 304.00,50.55 306.00,50.55 308.00,50.55 310.00,50.55 312.00,50.55 314.00,50.55 316.00,50.55 318.00,50.55 320.00,50.55 322.00,50.55 324.00,50.55 326.00,50.55 328.00,50.55 330.00,50.55 332.00,50.55 334.00,50.55 336.00,50.55 338.00,50.55 340.00,50.55 342.00,50.55 344.00,50.55 346.00,50.55 348.00,50.55 350.00,50.55 352.00,50.55 354.00,50.55 356.00,50.55 358.00,50.55 360.00,50.55 362.00,50.55 364.00,50.55 366.00,50.55 368.00,50.55 370.00,50.55 372.00,50.55 374.00,50.55 376.00,50.55 378.00,50.55 380.00,50.55 382.00,50.55 384.00,50.55 386.00,50.55 388.00,50.55 390.00,50.55 392.00,50.55 394.00,50.55 396.00,50.55 398.00,50.55 400.00,50.55 402.00,50.55 404.00,50.55 406.00,50.55 408.00,50.55 410.00,50.55 412.00,50.55 414.00,50.55 416.00,50.55 418.00,50.55 420.00,50.55 422.00,50.55 424.00,50.55 426.00,50.55 428.00,50.55 430.00,50.55 432.00,50.55 434.00,50.55 436.00,50.55 438.00,50.55 440.00,50.55 442.00,50.55 444.00,50.55 446.00,50.55 448.00,50.55 450.00,50.55 452.00,50.55 454.00,50.55" fill="none" stroke="#7a4fa3" stroke-width="2.6" stroke-linecap="round" stroke-linejoin="round"/>
<circle cx="376.0" cy="244.2" r="3" fill="#a8641a"/>
<text x="384.0" y="248.2" font-size="10" fill="#a8641a">Adagrad</text>
<circle cx="376.0" cy="36.5" r="3" fill="#7a4fa3"/>
<text x="384.0" y="40.5" font-size="10" fill="#7a4fa3">RMSprop</text>
</svg>
