<svg viewBox="0 0 480 320" xmlns="http://www.w3.org/2000/svg" font-family="ui-monospace,SFMono-Regular,Menlo,Consolas,monospace">
<rect x="0" y="0" width="480" height="320" fill="#fffef9"/>
<line x1="56.0" y1="28" x2="56.0" y2="276" stroke="#1c201f1f" stroke-width="1"/>
<line x1="136.0" y1="28" x2="136.0" y2="276" stroke="#1c201f1f" stroke-width="1"/>
<line x1="216.0" y1="28" x2="216.0" y2="276" stroke="#1c201f1f" stroke-width="1"/>
<line x1="296.0" y1="28" x2="296.0" y2="276" stroke="#1c201f1f" stroke-width="1"/>
<line x1="376.0" y1="28" x2="376.0" y2="276" stroke="#1c201f1f" stroke-width="1"/>
<line x1="456.0" y1="28" x2="456.0" y2="276" stroke="#1c201f1f" stroke-width="1"/>
<line x1="56" y1="276.0" x2="456" y2="276.0" stroke="#1c201f1f" stroke-width="1"/>
<line x1="56" y1="214.0" x2="456" y2="214.0" stroke="#1c201f1f" stroke-width="1"/>
<line x1="56" y1="152.0" x2="456" y2="152.0" stroke="#1c201f1f" stroke-width="1"/>
<line x1="56" y1="90.0" x2="456" y2="90.0" stroke="#1c201f1f" stroke-width="1"/>
<line x1="56" y1="28.0" x2="456" y2="28.0" stroke="#1c201f1f" stroke-width="1"/>
<line x1="56.0" y1="28" x2="56.0" y2="276" stroke="#1c201f4a" stroke-width="1.4"/>
<line x1="56" y1="276.0" x2="456" y2="276.0" stroke="#1c201f4a" stroke-width="1.4"/>
<rect x="56" y="28" width="400" height="248" fill="none" stroke="#1c201f4a" stroke-width="1"/>
<text x="56.0" y="292" font-size="10" fill="#565f5b" text-anchor="middle">0</text>
<text x="136.0" y="292" font-size="10" fill="#565f5b" text-anchor="middle">200</text>
<text x="216.0" y="292" font-size="10" fill="#565f5b" text-anchor="middle">400</text>
<text x="296.0" y="292" font-size="10" fill="#565f5b" text-anchor="middle">600</text>
<text x="376.0" y="292" font-size="10" fill="#565f5b" text-anchor="middle">800</text>
<text x="456.0" y="292" font-size="10" fill="#565f5b" text-anchor="middle">1000</text>
<text x="48" y="279.0" font-size="10" fill="#565f5b" text-anchor="end">0</text>
<text x="48" y="217.0" font-size="10" fill="#565f5b" text-anchor="end">0.25</text>
<text x="48" y="155.0" font-size="10" fill="#565f5b" text-anchor="end">0.5</text>
<text x="48" y="93.0" font-size="10" fill="#565f5b" text-anchor="end">0.75</text>
<text x="48" y="31.0" font-size="10" fill="#565f5b" text-anchor="end">1</text>
<text x="256.0" y="308" font-size="11" fill="#565f5b" text-anchor="middle">training step</text>
<text x="16" y="152.0" font-size="11" fill="#565f5b" text-anchor="middle" transform="rotate(-90 16 152.0)">learning rate (relative to peak)</text>
<polyline points="56.00,276.00 58.00,263.60 60.00,251.20 62.00,238.80 64.00,226.40 66.00,214.00 68.00,201.60 70.00,189.20 72.00,176.80 74.00,164.40 76.00,152.00 78.00,139.60 80.00,127.20 82.00,114.80 84.00,102.40 86.00,90.00 88.00,77.60 90.00,65.20 92.00,52.80 94.00,40.40 96.00,28.00 98.00,28.02 100.00,28.07 102.00,28.16 104.00,28.29 106.00,28.45 108.00,28.65 110.00,28.88 112.00,29.15 114.00,29.45 116.00,29.79 118.00,30.16 120.00,30.57 122.00,31.02 124.00,31.50 126.00,32.01 128.00,32.56 130.00,33.15 132.00,33.77 134.00,34.42 136.00,35.10 138.00,35.82 140.00,36.58 142.00,37.36 144.00,38.18 146.00,39.04 148.00,39.92 150.00,40.84 152.00,41.79 154.00,42.77 156.00,43.78 158.00,44.83 160.00,45.90 162.00,47.00 164.00,48.14 166.00,49.30 168.00,50.50 170.00,51.72 172.00,52.97 174.00,54.25 176.00,55.56 178.00,56.90 180.00,58.26 182.00,59.65 184.00,61.06 186.00,62.50 188.00,63.97 190.00,65.46 192.00,66.98 194.00,68.52 196.00,70.08 198.00,71.67 200.00,73.28 202.00,74.91 204.00,76.56 206.00,78.23 208.00,79.93 210.00,81.64 212.00,83.38 214.00,85.13 216.00,86.90 218.00,88.69 220.00,90.50 222.00,92.32 224.00,94.16 226.00,96.02 228.00,97.89 230.00,99.77 232.00,101.67 234.00,103.58 236.00,105.51 238.00,107.45 240.00,109.40 242.00,111.36 244.00,113.33 246.00,115.31 248.00,117.30 250.00,119.30 252.00,121.31 254.00,123.32 256.00,125.34 258.00,127.37 260.00,129.41 262.00,131.44 264.00,133.49 266.00,135.53 268.00,137.58 270.00,139.63 272.00,141.69 274.00,143.74 276.00,145.80 278.00,147.86 280.00,149.91 282.00,151.97 284.00,154.02 286.00,156.07 288.00,158.11 290.00,160.16 292.00,162.19 294.00,164.23 296.00,166.26 298.00,168.28 300.00,170.29 302.00,172.30 304.00,174.30 306.00,176.29 308.00,178.27 310.00,180.24 312.00,182.20 314.00,184.15 316.00,186.09 318.00,188.02 320.00,189.93 322.00,191.83 324.00,193.71 326.00,195.58 328.00,197.44 330.00,199.28 332.00,201.10 334.00,202.91 336.00,204.70 338.00,206.47 340.00,208.22 342.00,209.96 344.00,211.67 346.00,213.37 348.00,215.04 350.00,216.69 352.00,218.32 354.00,219.93 356.00,221.52 358.00,223.08 360.00,224.62 362.00,226.14 364.00,227.63 366.00,229.10 368.00,230.54 370.00,231.95 372.00,233.34 374.00,234.70 376.00,236.04 378.00,237.35 380.00,238.63 382.00,239.88 384.00,241.10 386.00,242.30 388.00,243.46 390.00,244.60 392.00,245.70 394.00,246.77 396.00,247.82 398.00,248.83 400.00,249.81 402.00,250.76 404.00,251.68 406.00,252.56 408.00,253.42 410.00,254.24 412.00,255.02 414.00,255.78 416.00,256.50 418.00,257.18 420.00,257.83 422.00,258.45 424.00,259.04 426.00,259.59 428.00,260.10 430.00,260.58 432.00,261.03 434.00,261.44 436.00,261.81 438.00,262.15 440.00,262.45 442.00,262.72 444.00,262.95 446.00,263.15 448.00,263.31 450.00,263.44 452.00,263.53 454.00,263.58 456.00,263.60" fill="none" stroke="#a8641a" stroke-width="2.6" stroke-linecap="round" stroke-linejoin="round"/>
<line x1="96.0" y1="276.0" x2="96.0" y2="28.0" stroke="#1f6e5f" stroke-width="1" stroke-dasharray="3 3"/>
<text x="102.0" y="22.0" font-size="10" fill="#1f6e5f">warmup ends</text>
</svg>
