<svg viewBox="0 0 480 320" xmlns="http://www.w3.org/2000/svg" font-family="ui-monospace,SFMono-Regular,Menlo,Consolas,monospace">
<rect x="0" y="0" width="480" height="320" fill="#fffef9"/>
<line x1="56.0" y1="28" x2="56.0" y2="276" stroke="#1c201f1f" stroke-width="1"/>
<line x1="156.0" y1="28" x2="156.0" y2="276" stroke="#1c201f1f" stroke-width="1"/>
<line x1="256.0" y1="28" x2="256.0" y2="276" stroke="#1c201f1f" stroke-width="1"/>
<line x1="356.0" y1="28" x2="356.0" y2="276" stroke="#1c201f1f" stroke-width="1"/>
<line x1="456.0" y1="28" x2="456.0" y2="276" stroke="#1c201f1f" stroke-width="1"/>
<line x1="56" y1="251.2" x2="456" y2="251.2" stroke="#1c201f1f" stroke-width="1"/>
<line x1="56" y1="201.6" x2="456" y2="201.6" stroke="#1c201f1f" stroke-width="1"/>
<line x1="56" y1="152.0" x2="456" y2="152.0" stroke="#1c201f1f" stroke-width="1"/>
<line x1="56" y1="102.4" x2="456" y2="102.4" stroke="#1c201f1f" stroke-width="1"/>
<line x1="56" y1="52.8" x2="456" y2="52.8" stroke="#1c201f1f" stroke-width="1"/>
<line x1="256.0" y1="28" x2="256.0" y2="276" stroke="#1c201f4a" stroke-width="1.4"/>
<line x1="56" y1="251.2" x2="456" y2="251.2" stroke="#1c201f4a" stroke-width="1.4"/>
<rect x="56" y="28" width="400" height="248" fill="none" stroke="#1c201f4a" stroke-width="1"/>
<text x="56.0" y="292" font-size="10" fill="#565f5b" text-anchor="middle">-4</text>
<text x="156.0" y="292" font-size="10" fill="#565f5b" text-anchor="middle">-2</text>
<text x="256.0" y="292" font-size="10" fill="#565f5b" text-anchor="middle">0</text>
<text x="356.0" y="292" font-size="10" fill="#565f5b" text-anchor="middle">2</text>
<text x="456.0" y="292" font-size="10" fill="#565f5b" text-anchor="middle">4</text>
<text x="48" y="254.2" font-size="10" fill="#565f5b" text-anchor="end">0</text>
<text x="48" y="204.6" font-size="10" fill="#565f5b" text-anchor="end">1</text>
<text x="48" y="155.0" font-size="10" fill="#565f5b" text-anchor="end">2</text>
<text x="48" y="105.4" font-size="10" fill="#565f5b" text-anchor="end">3</text>
<text x="48" y="55.8" font-size="10" fill="#565f5b" text-anchor="end">4</text>
<text x="256.0" y="312" font-size="11" fill="#565f5b" text-anchor="middle">x</text>
<text x="16" y="152.0" font-size="11" fill="#565f5b" text-anchor="middle" transform="rotate(-90 16 152.0)">f(x)</text>
<polyline points="56.00,251.20 58.00,251.20 60.00,251.21 62.00,251.21 64.00,251.21 66.00,251.21 68.00,251.21 70.00,251.21 72.00,251.21 74.00,251.22 76.00,251.22 78.00,251.22 80.00,251.23 82.00,251.23 84.00,251.24 86.00,251.24 88.00,251.25 90.00,251.26 92.00,251.27 94.00,251.28 96.00,251.29 98.00,251.31 100.00,251.32 102.00,251.34 104.00,251.36 106.00,251.38 108.00,251.40 110.00,251.43 112.00,251.46 114.00,251.50 116.00,251.53 118.00,251.57 120.00,251.62 122.00,251.67 124.00,251.72 126.00,251.78 128.00,251.84 130.00,251.91 132.00,251.99 134.00,252.07 136.00,252.16 138.00,252.25 140.00,252.35 142.00,252.46 144.00,252.58 146.00,252.70 148.00,252.84 150.00,252.98 152.00,253.13 154.00,253.29 156.00,253.45 158.00,253.63 160.00,253.81 162.00,254.00 164.00,254.20 166.00,254.41 168.00,254.63 170.00,254.85 172.00,255.08 174.00,255.32 176.00,255.56 178.00,255.80 180.00,256.05 182.00,256.31 184.00,256.56 186.00,256.82 188.00,257.07 190.00,257.33 192.00,257.58 194.00,257.82 196.00,258.06 198.00,258.29 200.00,258.51 202.00,258.71 204.00,258.90 206.00,259.08 208.00,259.23 210.00,259.36 212.00,259.47 214.00,259.56 216.00,259.61 218.00,259.63 220.00,259.62 222.00,259.58 224.00,259.49 226.00,259.36 228.00,259.19 230.00,258.98 232.00,258.71 234.00,258.40 236.00,258.04 238.00,257.62 240.00,257.14 242.00,256.61 244.00,256.02 246.00,255.37 248.00,254.66 250.00,253.89 252.00,253.06 254.00,252.16 256.00,251.20 258.00,250.18 260.00,249.09 262.00,247.94 264.00,246.73 266.00,245.45 268.00,244.12 270.00,242.72 272.00,241.27 274.00,239.76 276.00,238.20 278.00,236.58 280.00,234.91 282.00,233.19 284.00,231.42 286.00,229.60 288.00,227.75 290.00,225.85 292.00,223.91 294.00,221.94 296.00,219.93 298.00,217.89 300.00,215.83 302.00,213.73 304.00,211.62 306.00,209.48 308.00,207.32 310.00,205.14 312.00,202.95 314.00,200.75 316.00,198.54 318.00,196.32 320.00,194.09 322.00,191.86 324.00,189.62 326.00,187.38 328.00,185.14 330.00,182.90 332.00,180.66 334.00,178.43 336.00,176.20 338.00,173.97 340.00,171.75 342.00,169.54 344.00,167.33 346.00,165.13 348.00,162.94 350.00,160.75 352.00,158.58 354.00,156.41 356.00,154.25 358.00,152.10 360.00,149.96 362.00,147.83 364.00,145.70 366.00,143.58 368.00,141.48 370.00,139.37 372.00,137.28 374.00,135.19 376.00,133.12 378.00,131.04 380.00,128.98 382.00,126.92 384.00,124.87 386.00,122.82 388.00,120.78 390.00,118.74 392.00,116.70 394.00,114.68 396.00,112.65 398.00,110.63 400.00,108.61 402.00,106.60 404.00,104.59 406.00,102.58 408.00,100.57 410.00,98.57 412.00,96.57 414.00,94.57 416.00,92.57 418.00,90.58 420.00,88.58 422.00,86.59 424.00,84.60 426.00,82.60 428.00,80.61 430.00,78.63 432.00,76.64 434.00,74.65 436.00,72.66 438.00,70.67 440.00,68.69 442.00,66.70 444.00,64.71 446.00,62.73 448.00,60.74 450.00,58.76 452.00,56.77 454.00,54.79 456.00,52.80" fill="none" stroke="#a8641a" stroke-width="2.6" stroke-linecap="round" stroke-linejoin="round"/>
<line x1="331.0" y1="181.8" x2="331.0" y2="276" stroke="#1f6e5f" stroke-width="1" stroke-dasharray="3 3"/>
<line x1="56" y1="181.8" x2="331.0" y2="181.8" stroke="#1f6e5f" stroke-width="1" stroke-dasharray="3 3"/>
<circle cx="331.0" cy="181.8" r="4" fill="#1f6e5f"/>
<text x="339.0" y="173.8" font-size="11" fill="#1f6e5f" text-anchor="start" font-weight="600">GELU(1.5) = 1.400</text>
<text x="56" y="18" font-size="14" fill="#1c201f" font-weight="700" font-family="Georgia,ui-serif,serif">GELU</text>
<text x="456" y="18" font-size="10.5" fill="#565f5b" text-anchor="end">x · Φ(x)</text>
</svg>