<svg viewBox="0 0 480 320" xmlns="http://www.w3.org/2000/svg" font-family="ui-monospace,SFMono-Regular,Menlo,Consolas,monospace">
<rect x="0" y="0" width="480" height="320" fill="#fffef9"/>
<line x1="56.0" y1="28" x2="56.0" y2="276" stroke="#1c201f1f" stroke-width="1"/>
<line x1="156.0" y1="28" x2="156.0" y2="276" stroke="#1c201f1f" stroke-width="1"/>
<line x1="256.0" y1="28" x2="256.0" y2="276" stroke="#1c201f1f" stroke-width="1"/>
<line x1="356.0" y1="28" x2="356.0" y2="276" stroke="#1c201f1f" stroke-width="1"/>
<line x1="456.0" y1="28" x2="456.0" y2="276" stroke="#1c201f1f" stroke-width="1"/>
<line x1="56" y1="251.2" x2="456" y2="251.2" stroke="#1c201f1f" stroke-width="1"/>
<line x1="56" y1="201.6" x2="456" y2="201.6" stroke="#1c201f1f" stroke-width="1"/>
<line x1="56" y1="152.0" x2="456" y2="152.0" stroke="#1c201f1f" stroke-width="1"/>
<line x1="56" y1="102.4" x2="456" y2="102.4" stroke="#1c201f1f" stroke-width="1"/>
<line x1="56" y1="52.8" x2="456" y2="52.8" stroke="#1c201f1f" stroke-width="1"/>
<line x1="256.0" y1="28" x2="256.0" y2="276" stroke="#1c201f4a" stroke-width="1.4"/>
<line x1="56" y1="251.2" x2="456" y2="251.2" stroke="#1c201f4a" stroke-width="1.4"/>
<rect x="56" y="28" width="400" height="248" fill="none" stroke="#1c201f4a" stroke-width="1"/>
<text x="56.0" y="292" font-size="10" fill="#565f5b" text-anchor="middle">-4</text>
<text x="156.0" y="292" font-size="10" fill="#565f5b" text-anchor="middle">-2</text>
<text x="256.0" y="292" font-size="10" fill="#565f5b" text-anchor="middle">0</text>
<text x="356.0" y="292" font-size="10" fill="#565f5b" text-anchor="middle">2</text>
<text x="456.0" y="292" font-size="10" fill="#565f5b" text-anchor="middle">4</text>
<text x="48" y="254.2" font-size="10" fill="#565f5b" text-anchor="end">0</text>
<text x="48" y="204.6" font-size="10" fill="#565f5b" text-anchor="end">1</text>
<text x="48" y="155.0" font-size="10" fill="#565f5b" text-anchor="end">2</text>
<text x="48" y="105.4" font-size="10" fill="#565f5b" text-anchor="end">3</text>
<text x="48" y="55.8" font-size="10" fill="#565f5b" text-anchor="end">4</text>
<text x="256.0" y="312" font-size="11" fill="#565f5b" text-anchor="middle">x</text>
<text x="16" y="152.0" font-size="11" fill="#565f5b" text-anchor="middle" transform="rotate(-90 16 152.0)">f(x)</text>
<polyline points="56.00,253.18 58.00,253.16 60.00,253.14 62.00,253.12 64.00,253.10 66.00,253.08 68.00,253.06 70.00,253.05 72.00,253.03 74.00,253.01 76.00,252.99 78.00,252.97 80.00,252.95 82.00,252.93 84.00,252.91 86.00,252.89 88.00,252.87 90.00,252.85 92.00,252.83 94.00,252.81 96.00,252.79 98.00,252.77 100.00,252.75 102.00,252.73 104.00,252.71 106.00,252.69 108.00,252.67 110.00,252.65 112.00,252.63 114.00,252.61 116.00,252.59 118.00,252.57 120.00,252.55 122.00,252.53 124.00,252.51 126.00,252.49 128.00,252.47 130.00,252.45 132.00,252.43 134.00,252.41 136.00,252.39 138.00,252.37 140.00,252.35 142.00,252.33 144.00,252.31 146.00,252.29 148.00,252.27 150.00,252.25 152.00,252.23 154.00,252.21 156.00,252.19 158.00,252.17 160.00,252.15 162.00,252.13 164.00,252.11 166.00,252.09 168.00,252.07 170.00,252.05 172.00,252.03 174.00,252.01 176.00,251.99 178.00,251.97 180.00,251.95 182.00,251.93 184.00,251.91 186.00,251.89 188.00,251.87 190.00,251.85 192.00,251.83 194.00,251.82 196.00,251.80 198.00,251.78 200.00,251.76 202.00,251.74 204.00,251.72 206.00,251.70 208.00,251.68 210.00,251.66 212.00,251.64 214.00,251.62 216.00,251.60 218.00,251.58 220.00,251.56 222.00,251.54 224.00,251.52 226.00,251.50 228.00,251.48 230.00,251.46 232.00,251.44 234.00,251.42 236.00,251.40 238.00,251.38 240.00,251.36 242.00,251.34 244.00,251.32 246.00,251.30 248.00,251.28 250.00,251.26 252.00,251.24 254.00,251.22 256.00,251.20 258.00,249.22 260.00,247.23 262.00,245.25 264.00,243.26 266.00,241.28 268.00,239.30 270.00,237.31 272.00,235.33 274.00,233.34 276.00,231.36 278.00,229.38 280.00,227.39 282.00,225.41 284.00,223.42 286.00,221.44 288.00,219.46 290.00,217.47 292.00,215.49 294.00,213.50 296.00,211.52 298.00,209.54 300.00,207.55 302.00,205.57 304.00,203.58 306.00,201.60 308.00,199.62 310.00,197.63 312.00,195.65 314.00,193.66 316.00,191.68 318.00,189.70 320.00,187.71 322.00,185.73 324.00,183.74 326.00,181.76 328.00,179.78 330.00,177.79 332.00,175.81 334.00,173.82 336.00,171.84 338.00,169.86 340.00,167.87 342.00,165.89 344.00,163.90 346.00,161.92 348.00,159.94 350.00,157.95 352.00,155.97 354.00,153.98 356.00,152.00 358.00,150.02 360.00,148.03 362.00,146.05 364.00,144.06 366.00,142.08 368.00,140.10 370.00,138.11 372.00,136.13 374.00,134.14 376.00,132.16 378.00,130.18 380.00,128.19 382.00,126.21 384.00,124.22 386.00,122.24 388.00,120.26 390.00,118.27 392.00,116.29 394.00,114.30 396.00,112.32 398.00,110.34 400.00,108.35 402.00,106.37 404.00,104.38 406.00,102.40 408.00,100.42 410.00,98.43 412.00,96.45 414.00,94.46 416.00,92.48 418.00,90.50 420.00,88.51 422.00,86.53 424.00,84.54 426.00,82.56 428.00,80.58 430.00,78.59 432.00,76.61 434.00,74.62 436.00,72.64 438.00,70.66 440.00,68.67 442.00,66.69 444.00,64.70 446.00,62.72 448.00,60.74 450.00,58.75 452.00,56.77 454.00,54.78 456.00,52.80" fill="none" stroke="#a8641a" stroke-width="2.6" stroke-linecap="round" stroke-linejoin="round"/>
<line x1="156.0" y1="252.2" x2="156.0" y2="276" stroke="#1f6e5f" stroke-width="1" stroke-dasharray="3 3"/>
<line x1="56" y1="252.2" x2="156.0" y2="252.2" stroke="#1f6e5f" stroke-width="1" stroke-dasharray="3 3"/>
<circle cx="156.0" cy="252.2" r="4" fill="#1f6e5f"/>
<text x="164.0" y="244.2" font-size="11" fill="#1f6e5f" text-anchor="start" font-weight="600">LeakyReLU(−2) = −0.02</text>
<text x="56" y="18" font-size="14" fill="#1c201f" font-weight="700" font-family="Georgia,ui-serif,serif">Leaky ReLU</text>
<text x="456" y="18" font-size="10.5" fill="#565f5b" text-anchor="end">x if x>0 else 0.01x</text>
</svg>