<svg viewBox="0 0 480 320" xmlns="http://www.w3.org/2000/svg" font-family="ui-monospace,SFMono-Regular,Menlo,Consolas,monospace">
<rect x="0" y="0" width="480" height="320" fill="#fffef9"/>
<line x1="56.0" y1="28" x2="56.0" y2="276" stroke="#1c201f1f" stroke-width="1"/>
<line x1="156.0" y1="28" x2="156.0" y2="276" stroke="#1c201f1f" stroke-width="1"/>
<line x1="256.0" y1="28" x2="256.0" y2="276" stroke="#1c201f1f" stroke-width="1"/>
<line x1="356.0" y1="28" x2="356.0" y2="276" stroke="#1c201f1f" stroke-width="1"/>
<line x1="456.0" y1="28" x2="456.0" y2="276" stroke="#1c201f1f" stroke-width="1"/>
<line x1="56" y1="247.4" x2="456" y2="247.4" stroke="#1c201f1f" stroke-width="1"/>
<line x1="56" y1="199.7" x2="456" y2="199.7" stroke="#1c201f1f" stroke-width="1"/>
<line x1="56" y1="152.0" x2="456" y2="152.0" stroke="#1c201f1f" stroke-width="1"/>
<line x1="56" y1="104.3" x2="456" y2="104.3" stroke="#1c201f1f" stroke-width="1"/>
<line x1="56" y1="56.6" x2="456" y2="56.6" stroke="#1c201f1f" stroke-width="1"/>
<line x1="256.0" y1="28" x2="256.0" y2="276" stroke="#1c201f4a" stroke-width="1.4"/>
<line x1="56" y1="247.4" x2="456" y2="247.4" stroke="#1c201f4a" stroke-width="1.4"/>
<rect x="56" y="28" width="400" height="248" fill="none" stroke="#1c201f4a" stroke-width="1"/>
<text x="56.0" y="292" font-size="10" fill="#565f5b" text-anchor="middle">-6</text>
<text x="156.0" y="292" font-size="10" fill="#565f5b" text-anchor="middle">-3</text>
<text x="256.0" y="292" font-size="10" fill="#565f5b" text-anchor="middle">0</text>
<text x="356.0" y="292" font-size="10" fill="#565f5b" text-anchor="middle">3</text>
<text x="456.0" y="292" font-size="10" fill="#565f5b" text-anchor="middle">6</text>
<text x="48" y="250.4" font-size="10" fill="#565f5b" text-anchor="end">0</text>
<text x="48" y="202.7" font-size="10" fill="#565f5b" text-anchor="end">0.25</text>
<text x="48" y="155.0" font-size="10" fill="#565f5b" text-anchor="end">0.5</text>
<text x="48" y="107.3" font-size="10" fill="#565f5b" text-anchor="end">0.75</text>
<text x="48" y="59.6" font-size="10" fill="#565f5b" text-anchor="end">1</text>
<text x="256.0" y="312" font-size="11" fill="#565f5b" text-anchor="middle">x</text>
<text x="16" y="152.0" font-size="11" fill="#565f5b" text-anchor="middle" transform="rotate(-90 16 152.0)">f(x)</text>
<polyline points="56.00,246.91 58.00,246.88 60.00,246.85 62.00,246.82 64.00,246.79 66.00,246.75 68.00,246.71 70.00,246.67 72.00,246.62 74.00,246.58 76.00,246.53 78.00,246.47 80.00,246.42 82.00,246.36 84.00,246.30 86.00,246.23 88.00,246.16 90.00,246.08 92.00,246.00 94.00,245.92 96.00,245.83 98.00,245.73 100.00,245.63 102.00,245.52 104.00,245.41 106.00,245.29 108.00,245.16 110.00,245.02 112.00,244.88 114.00,244.73 116.00,244.57 118.00,244.39 120.00,244.21 122.00,244.02 124.00,243.82 126.00,243.60 128.00,243.37 130.00,243.13 132.00,242.87 134.00,242.60 136.00,242.31 138.00,242.01 140.00,241.68 142.00,241.34 144.00,240.98 146.00,240.60 148.00,240.19 150.00,239.77 152.00,239.32 154.00,238.84 156.00,238.34 158.00,237.81 160.00,237.25 162.00,236.65 164.00,236.03 166.00,235.37 168.00,234.68 170.00,233.95 172.00,233.18 174.00,232.37 176.00,231.52 178.00,230.62 180.00,229.68 182.00,228.70 184.00,227.66 186.00,226.57 188.00,225.43 190.00,224.24 192.00,222.99 194.00,221.69 196.00,220.32 198.00,218.90 200.00,217.42 202.00,215.87 204.00,214.26 206.00,212.58 208.00,210.84 210.00,209.04 212.00,207.17 214.00,205.23 216.00,203.23 218.00,201.16 220.00,199.02 222.00,196.83 224.00,194.56 226.00,192.24 228.00,189.86 230.00,187.42 232.00,184.93 234.00,182.38 236.00,179.79 238.00,177.15 240.00,174.46 242.00,171.74 244.00,168.99 246.00,166.20 248.00,163.39 250.00,160.56 252.00,157.72 254.00,154.86 256.00,152.00 258.00,149.14 260.00,146.28 262.00,143.44 264.00,140.61 266.00,137.80 268.00,135.01 270.00,132.26 272.00,129.54 274.00,126.85 276.00,124.21 278.00,121.62 280.00,119.07 282.00,116.58 284.00,114.14 286.00,111.76 288.00,109.44 290.00,107.17 292.00,104.98 294.00,102.84 296.00,100.77 298.00,98.77 300.00,96.83 302.00,94.96 304.00,93.16 306.00,91.42 308.00,89.74 310.00,88.13 312.00,86.58 314.00,85.10 316.00,83.68 318.00,82.31 320.00,81.01 322.00,79.76 324.00,78.57 326.00,77.43 328.00,76.34 330.00,75.30 332.00,74.32 334.00,73.38 336.00,72.48 338.00,71.63 340.00,70.82 342.00,70.05 344.00,69.32 346.00,68.63 348.00,67.97 350.00,67.35 352.00,66.75 354.00,66.19 356.00,65.66 358.00,65.16 360.00,64.68 362.00,64.23 364.00,63.81 366.00,63.40 368.00,63.02 370.00,62.66 372.00,62.32 374.00,61.99 376.00,61.69 378.00,61.40 380.00,61.13 382.00,60.87 384.00,60.63 386.00,60.40 388.00,60.18 390.00,59.98 392.00,59.79 394.00,59.61 396.00,59.43 398.00,59.27 400.00,59.12 402.00,58.98 404.00,58.84 406.00,58.71 408.00,58.59 410.00,58.48 412.00,58.37 414.00,58.27 416.00,58.17 418.00,58.08 420.00,58.00 422.00,57.92 424.00,57.84 426.00,57.77 428.00,57.70 430.00,57.64 432.00,57.58 434.00,57.53 436.00,57.47 438.00,57.42 440.00,57.38 442.00,57.33 444.00,57.29 446.00,57.25 448.00,57.21 450.00,57.18 452.00,57.15 454.00,57.12 456.00,57.09" fill="none" stroke="#a8641a" stroke-width="2.6" stroke-linecap="round" stroke-linejoin="round"/>
<line x1="306.0" y1="91.4" x2="306.0" y2="276" stroke="#1f6e5f" stroke-width="1" stroke-dasharray="3 3"/>
<line x1="56" y1="91.4" x2="306.0" y2="91.4" stroke="#1f6e5f" stroke-width="1" stroke-dasharray="3 3"/>
<circle cx="306.0" cy="91.4" r="4" fill="#1f6e5f"/>
<text x="314.0" y="83.4" font-size="11" fill="#1f6e5f" text-anchor="start" font-weight="600">σ(1.5) = 0.818</text>
<text x="56" y="18" font-size="14" fill="#1c201f" font-weight="700" font-family="Georgia,ui-serif,serif">Sigmoid</text>
<text x="456" y="18" font-size="10.5" fill="#565f5b" text-anchor="end">σ(x) = 1 / (1 + e⁻ˣ)</text>
</svg>