<svg viewBox="0 0 480 320" xmlns="http://www.w3.org/2000/svg" font-family="ui-monospace,SFMono-Regular,Menlo,Consolas,monospace">
<rect x="0" y="0" width="480" height="320" fill="#fffef9"/>
<line x1="56.0" y1="28" x2="56.0" y2="276" stroke="#1c201f1f" stroke-width="1"/>
<line x1="156.0" y1="28" x2="156.0" y2="276" stroke="#1c201f1f" stroke-width="1"/>
<line x1="256.0" y1="28" x2="256.0" y2="276" stroke="#1c201f1f" stroke-width="1"/>
<line x1="356.0" y1="28" x2="356.0" y2="276" stroke="#1c201f1f" stroke-width="1"/>
<line x1="456.0" y1="28" x2="456.0" y2="276" stroke="#1c201f1f" stroke-width="1"/>
<line x1="56" y1="258.3" x2="456" y2="258.3" stroke="#1c201f1f" stroke-width="1"/>
<line x1="56" y1="187.4" x2="456" y2="187.4" stroke="#1c201f1f" stroke-width="1"/>
<line x1="56" y1="116.6" x2="456" y2="116.6" stroke="#1c201f1f" stroke-width="1"/>
<line x1="56" y1="45.7" x2="456" y2="45.7" stroke="#1c201f1f" stroke-width="1"/>
<line x1="256.0" y1="28" x2="256.0" y2="276" stroke="#1c201f4a" stroke-width="1.4"/>
<line x1="56" y1="258.3" x2="456" y2="258.3" stroke="#1c201f4a" stroke-width="1.4"/>
<rect x="56" y="28" width="400" height="248" fill="none" stroke="#1c201f4a" stroke-width="1"/>
<text x="56.0" y="292" font-size="10" fill="#565f5b" text-anchor="middle">-6</text>
<text x="156.0" y="292" font-size="10" fill="#565f5b" text-anchor="middle">-3</text>
<text x="256.0" y="292" font-size="10" fill="#565f5b" text-anchor="middle">0</text>
<text x="356.0" y="292" font-size="10" fill="#565f5b" text-anchor="middle">3</text>
<text x="456.0" y="292" font-size="10" fill="#565f5b" text-anchor="middle">6</text>
<text x="48" y="261.3" font-size="10" fill="#565f5b" text-anchor="end">0</text>
<text x="48" y="190.4" font-size="10" fill="#565f5b" text-anchor="end">2</text>
<text x="48" y="119.6" font-size="10" fill="#565f5b" text-anchor="end">4</text>
<text x="48" y="48.7" font-size="10" fill="#565f5b" text-anchor="end">6</text>
<text x="256.0" y="312" font-size="11" fill="#565f5b" text-anchor="middle">x</text>
<text x="16" y="152.0" font-size="11" fill="#565f5b" text-anchor="middle" transform="rotate(-90 16 152.0)">f(x)</text>
<polyline points="56.00,258.81 58.00,258.84 60.00,258.87 62.00,258.90 64.00,258.93 66.00,258.96 68.00,258.99 70.00,259.03 72.00,259.07 74.00,259.11 76.00,259.15 78.00,259.19 80.00,259.23 82.00,259.28 84.00,259.33 86.00,259.38 88.00,259.43 90.00,259.49 92.00,259.55 94.00,259.61 96.00,259.67 98.00,259.74 100.00,259.81 102.00,259.88 104.00,259.96 106.00,260.04 108.00,260.12 110.00,260.21 112.00,260.29 114.00,260.39 116.00,260.48 118.00,260.58 120.00,260.69 122.00,260.80 124.00,260.91 126.00,261.03 128.00,261.15 130.00,261.27 132.00,261.40 134.00,261.54 136.00,261.68 138.00,261.82 140.00,261.97 142.00,262.12 144.00,262.28 146.00,262.44 148.00,262.61 150.00,262.78 152.00,262.96 154.00,263.14 156.00,263.33 158.00,263.52 160.00,263.71 162.00,263.91 164.00,264.11 166.00,264.31 168.00,264.52 170.00,264.72 172.00,264.93 174.00,265.15 176.00,265.36 178.00,265.57 180.00,265.78 182.00,265.99 184.00,266.20 186.00,266.40 188.00,266.60 190.00,266.80 192.00,266.98 194.00,267.16 196.00,267.33 198.00,267.49 200.00,267.64 202.00,267.77 204.00,267.88 206.00,267.98 208.00,268.06 210.00,268.11 212.00,268.14 214.00,268.15 216.00,268.13 218.00,268.07 220.00,267.99 222.00,267.86 224.00,267.70 226.00,267.50 228.00,267.26 230.00,266.97 232.00,266.64 234.00,266.25 236.00,265.82 238.00,265.33 240.00,264.79 242.00,264.19 244.00,263.53 246.00,262.81 248.00,262.03 250.00,261.19 252.00,260.28 254.00,259.32 256.00,258.29 258.00,257.19 260.00,256.03 262.00,254.81 264.00,253.53 266.00,252.18 268.00,250.77 270.00,249.31 272.00,247.78 274.00,246.20 276.00,244.56 278.00,242.87 280.00,241.13 282.00,239.34 284.00,237.50 286.00,235.62 288.00,233.69 290.00,231.73 292.00,229.72 294.00,227.68 296.00,225.61 298.00,223.51 300.00,221.38 302.00,219.22 304.00,217.04 306.00,214.84 308.00,212.61 310.00,210.37 312.00,208.12 314.00,205.84 316.00,203.56 318.00,201.27 320.00,198.96 322.00,196.65 324.00,194.33 326.00,192.00 328.00,189.67 330.00,187.34 332.00,185.00 334.00,182.67 336.00,180.33 338.00,177.99 340.00,175.65 342.00,173.32 344.00,170.98 346.00,168.65 348.00,166.32 350.00,164.00 352.00,161.67 354.00,159.36 356.00,157.04 358.00,154.73 360.00,152.42 362.00,150.12 364.00,147.82 366.00,145.53 368.00,143.24 370.00,140.96 372.00,138.68 374.00,136.40 376.00,134.14 378.00,131.87 380.00,129.61 382.00,127.35 384.00,125.10 386.00,122.86 388.00,120.61 390.00,118.37 392.00,116.14 394.00,113.91 396.00,111.68 398.00,109.46 400.00,107.24 402.00,105.03 404.00,102.82 406.00,100.61 408.00,98.40 410.00,96.20 412.00,94.00 414.00,91.81 416.00,89.62 418.00,87.43 420.00,85.24 422.00,83.06 424.00,80.87 426.00,78.69 428.00,76.52 430.00,74.34 432.00,72.17 434.00,70.00 436.00,67.83 438.00,65.67 440.00,63.50 442.00,61.34 444.00,59.18 446.00,57.02 448.00,54.86 450.00,52.70 452.00,50.55 454.00,48.39 456.00,46.24" fill="none" stroke="#a8641a" stroke-width="2.6" stroke-linecap="round" stroke-linejoin="round"/>
<line x1="306.0" y1="214.8" x2="306.0" y2="276" stroke="#1f6e5f" stroke-width="1" stroke-dasharray="3 3"/>
<line x1="56" y1="214.8" x2="306.0" y2="214.8" stroke="#1f6e5f" stroke-width="1" stroke-dasharray="3 3"/>
<circle cx="306.0" cy="214.8" r="4" fill="#1f6e5f"/>
<text x="314.0" y="206.8" font-size="11" fill="#1f6e5f" text-anchor="start" font-weight="600">SiLU(1.5) = 1.226</text>
<text x="56" y="18" font-size="14" fill="#1c201f" font-weight="700" font-family="Georgia,ui-serif,serif">SiLU / Swish</text>
<text x="456" y="18" font-size="10.5" fill="#565f5b" text-anchor="end">x · σ(x)</text>
</svg>