<svg viewBox="0 0 480 320" xmlns="http://www.w3.org/2000/svg" font-family="ui-monospace,SFMono-Regular,Menlo,Consolas,monospace">
<rect x="0" y="0" width="480" height="320" fill="#fffef9"/>
<line x1="56.0" y1="28" x2="56.0" y2="276" stroke="#1c201f1f" stroke-width="1"/>
<line x1="156.0" y1="28" x2="156.0" y2="276" stroke="#1c201f1f" stroke-width="1"/>
<line x1="256.0" y1="28" x2="256.0" y2="276" stroke="#1c201f1f" stroke-width="1"/>
<line x1="356.0" y1="28" x2="356.0" y2="276" stroke="#1c201f1f" stroke-width="1"/>
<line x1="456.0" y1="28" x2="456.0" y2="276" stroke="#1c201f1f" stroke-width="1"/>
<line x1="56" y1="259.8" x2="456" y2="259.8" stroke="#1c201f1f" stroke-width="1"/>
<line x1="56" y1="205.9" x2="456" y2="205.9" stroke="#1c201f1f" stroke-width="1"/>
<line x1="56" y1="152.0" x2="456" y2="152.0" stroke="#1c201f1f" stroke-width="1"/>
<line x1="56" y1="98.1" x2="456" y2="98.1" stroke="#1c201f1f" stroke-width="1"/>
<line x1="56" y1="44.2" x2="456" y2="44.2" stroke="#1c201f1f" stroke-width="1"/>
<line x1="256.0" y1="28" x2="256.0" y2="276" stroke="#1c201f4a" stroke-width="1.4"/>
<line x1="56" y1="152.0" x2="456" y2="152.0" stroke="#1c201f4a" stroke-width="1.4"/>
<rect x="56" y="28" width="400" height="248" fill="none" stroke="#1c201f4a" stroke-width="1"/>
<text x="56.0" y="292" font-size="10" fill="#565f5b" text-anchor="middle">-4</text>
<text x="156.0" y="292" font-size="10" fill="#565f5b" text-anchor="middle">-2</text>
<text x="256.0" y="292" font-size="10" fill="#565f5b" text-anchor="middle">0</text>
<text x="356.0" y="292" font-size="10" fill="#565f5b" text-anchor="middle">2</text>
<text x="456.0" y="292" font-size="10" fill="#565f5b" text-anchor="middle">4</text>
<text x="48" y="262.8" font-size="10" fill="#565f5b" text-anchor="end">-1</text>
<text x="48" y="208.9" font-size="10" fill="#565f5b" text-anchor="end">-0.5</text>
<text x="48" y="155.0" font-size="10" fill="#565f5b" text-anchor="end">0</text>
<text x="48" y="101.1" font-size="10" fill="#565f5b" text-anchor="end">0.5</text>
<text x="48" y="47.2" font-size="10" fill="#565f5b" text-anchor="end">1</text>
<text x="256.0" y="312" font-size="11" fill="#565f5b" text-anchor="middle">x</text>
<text x="16" y="152.0" font-size="11" fill="#565f5b" text-anchor="middle" transform="rotate(-90 16 152.0)">f(x)</text>
<polyline points="56.00,259.75 58.00,259.75 60.00,259.74 62.00,259.73 64.00,259.73 66.00,259.72 68.00,259.71 70.00,259.70 72.00,259.69 74.00,259.68 76.00,259.67 78.00,259.65 80.00,259.64 82.00,259.62 84.00,259.60 86.00,259.59 88.00,259.57 90.00,259.54 92.00,259.52 94.00,259.50 96.00,259.47 98.00,259.44 100.00,259.41 102.00,259.37 104.00,259.33 106.00,259.29 108.00,259.25 110.00,259.20 112.00,259.15 114.00,259.09 116.00,259.03 118.00,258.97 120.00,258.89 122.00,258.82 124.00,258.73 126.00,258.64 128.00,258.55 130.00,258.44 132.00,258.32 134.00,258.20 136.00,258.07 138.00,257.92 140.00,257.76 142.00,257.59 144.00,257.41 146.00,257.21 148.00,257.00 150.00,256.76 152.00,256.51 154.00,256.24 156.00,255.95 158.00,255.63 160.00,255.29 162.00,254.92 164.00,254.52 166.00,254.09 168.00,253.63 170.00,253.13 172.00,252.59 174.00,252.01 176.00,251.38 178.00,250.71 180.00,249.98 182.00,249.20 184.00,248.36 186.00,247.46 188.00,246.50 190.00,245.46 192.00,244.35 194.00,243.16 196.00,241.89 198.00,240.53 200.00,239.08 202.00,237.53 204.00,235.88 206.00,234.12 208.00,232.25 210.00,230.27 212.00,228.17 214.00,225.95 216.00,223.60 218.00,221.12 220.00,218.52 222.00,215.78 224.00,212.91 226.00,209.91 228.00,206.77 230.00,203.51 232.00,200.12 234.00,196.60 236.00,192.97 238.00,189.22 240.00,185.37 242.00,181.43 244.00,177.39 246.00,173.28 248.00,169.11 250.00,164.88 252.00,160.61 254.00,156.31 256.00,152.00 258.00,147.69 260.00,143.39 262.00,139.12 264.00,134.89 266.00,130.72 268.00,126.61 270.00,122.57 272.00,118.63 274.00,114.78 276.00,111.03 278.00,107.40 280.00,103.88 282.00,100.49 284.00,97.23 286.00,94.09 288.00,91.09 290.00,88.22 292.00,85.48 294.00,82.88 296.00,80.40 298.00,78.05 300.00,75.83 302.00,73.73 304.00,71.75 306.00,69.88 308.00,68.12 310.00,66.47 312.00,64.92 314.00,63.47 316.00,62.11 318.00,60.84 320.00,59.65 322.00,58.54 324.00,57.50 326.00,56.54 328.00,55.64 330.00,54.80 332.00,54.02 334.00,53.29 336.00,52.62 338.00,51.99 340.00,51.41 342.00,50.87 344.00,50.37 346.00,49.91 348.00,49.48 350.00,49.08 352.00,48.71 354.00,48.37 356.00,48.05 358.00,47.76 360.00,47.49 362.00,47.24 364.00,47.00 366.00,46.79 368.00,46.59 370.00,46.41 372.00,46.24 374.00,46.08 376.00,45.93 378.00,45.80 380.00,45.68 382.00,45.56 384.00,45.45 386.00,45.36 388.00,45.27 390.00,45.18 392.00,45.11 394.00,45.03 396.00,44.97 398.00,44.91 400.00,44.85 402.00,44.80 404.00,44.75 406.00,44.71 408.00,44.67 410.00,44.63 412.00,44.59 414.00,44.56 416.00,44.53 418.00,44.50 420.00,44.48 422.00,44.46 424.00,44.43 426.00,44.41 428.00,44.40 430.00,44.38 432.00,44.36 434.00,44.35 436.00,44.33 438.00,44.32 440.00,44.31 442.00,44.30 444.00,44.29 446.00,44.28 448.00,44.27 450.00,44.27 452.00,44.26 454.00,44.25 456.00,44.25" fill="none" stroke="#a8641a" stroke-width="2.6" stroke-linecap="round" stroke-linejoin="round"/>
<line x1="331.0" y1="54.4" x2="331.0" y2="276" stroke="#1f6e5f" stroke-width="1" stroke-dasharray="3 3"/>
<line x1="56" y1="54.4" x2="331.0" y2="54.4" stroke="#1f6e5f" stroke-width="1" stroke-dasharray="3 3"/>
<circle cx="331.0" cy="54.4" r="4" fill="#1f6e5f"/>
<text x="339.0" y="46.4" font-size="11" fill="#1f6e5f" text-anchor="start" font-weight="600">tanh(1.5) = 0.905</text>
<text x="56" y="18" font-size="14" fill="#1c201f" font-weight="700" font-family="Georgia,ui-serif,serif">Tanh</text>
<text x="456" y="18" font-size="10.5" fill="#565f5b" text-anchor="end">tanh(x) = (eˣ−e⁻ˣ)/(eˣ+e⁻ˣ)</text>
</svg>