<svg viewBox="0 0 480 320" xmlns="http://www.w3.org/2000/svg" font-family="ui-monospace,SFMono-Regular,Menlo,Consolas,monospace">
<rect x="0" y="0" width="480" height="320" fill="#fffef9"/>
<line x1="47.8" y1="28" x2="47.8" y2="276" stroke="#1c201f1f" stroke-width="1"/>
<line x1="149.9" y1="28" x2="149.9" y2="276" stroke="#1c201f1f" stroke-width="1"/>
<line x1="251.9" y1="28" x2="251.9" y2="276" stroke="#1c201f1f" stroke-width="1"/>
<line x1="354.0" y1="28" x2="354.0" y2="276" stroke="#1c201f1f" stroke-width="1"/>
<line x1="456.0" y1="28" x2="456.0" y2="276" stroke="#1c201f1f" stroke-width="1"/>
<line x1="56" y1="276.0" x2="456" y2="276.0" stroke="#1c201f1f" stroke-width="1"/>
<line x1="56" y1="214.0" x2="456" y2="214.0" stroke="#1c201f1f" stroke-width="1"/>
<line x1="56" y1="152.0" x2="456" y2="152.0" stroke="#1c201f1f" stroke-width="1"/>
<line x1="56" y1="90.0" x2="456" y2="90.0" stroke="#1c201f1f" stroke-width="1"/>
<line x1="56" y1="28.0" x2="456" y2="28.0" stroke="#1c201f1f" stroke-width="1"/>
<line x1="56" y1="276.0" x2="456" y2="276.0" stroke="#1c201f4a" stroke-width="1.4"/>
<rect x="56" y="28" width="400" height="248" fill="none" stroke="#1c201f4a" stroke-width="1"/>
<text x="47.8" y="292" font-size="10" fill="#565f5b" text-anchor="middle">0</text>
<text x="149.9" y="292" font-size="10" fill="#565f5b" text-anchor="middle">0.25</text>
<text x="251.9" y="292" font-size="10" fill="#565f5b" text-anchor="middle">0.5</text>
<text x="354.0" y="292" font-size="10" fill="#565f5b" text-anchor="middle">0.75</text>
<text x="456.0" y="292" font-size="10" fill="#565f5b" text-anchor="middle">1</text>
<text x="48" y="279.0" font-size="10" fill="#565f5b" text-anchor="end">0</text>
<text x="48" y="217.0" font-size="10" fill="#565f5b" text-anchor="end">1.25</text>
<text x="48" y="155.0" font-size="10" fill="#565f5b" text-anchor="end">2.5</text>
<text x="48" y="93.0" font-size="10" fill="#565f5b" text-anchor="end">3.75</text>
<text x="48" y="31.0" font-size="10" fill="#565f5b" text-anchor="end">5</text>
<text x="256.0" y="308" font-size="11" fill="#565f5b" text-anchor="middle">probability assigned to true class  pₜ</text>
<text x="16" y="152.0" font-size="11" fill="#565f5b" text-anchor="middle" transform="rotate(-90 16 152.0)">loss</text>
<polyline points="56.00,81.96 56.67,85.86 57.33,89.47 58.00,92.83 58.67,95.98 59.33,98.95 60.00,101.74 60.67,104.39 61.33,106.90 62.00,109.29 62.67,111.58 63.33,113.76 64.00,115.85 64.67,117.85 65.33,119.78 66.00,121.63 66.67,123.42 67.33,125.15 68.00,126.81 68.67,128.43 69.33,129.99 70.00,131.50 70.67,132.97 71.33,134.40 72.00,135.79 72.67,137.14 73.33,138.45 74.00,139.73 74.67,140.98 75.33,142.20 76.00,143.39 76.67,144.55 77.33,145.68 78.00,146.79 78.67,147.87 79.33,148.94 80.00,149.97 80.67,150.99 81.33,151.99 82.00,152.97 82.67,153.92 83.33,154.87 84.00,155.79 84.67,156.69 85.33,157.58 86.00,158.46 86.67,159.32 87.33,160.16 88.00,160.99 88.67,161.81 89.33,162.61 90.00,163.40 90.67,164.18 91.33,164.95 92.00,165.70 92.67,166.44 93.33,167.18 94.00,167.90 94.67,168.61 95.33,169.31 96.00,170.00 96.67,170.68 97.33,171.36 98.00,172.02 98.67,172.67 99.33,173.32 100.00,173.96 100.67,174.59 101.33,175.21 102.00,175.82 102.67,176.43 103.33,177.03 104.00,177.62 104.67,178.21 105.33,178.79 106.00,179.36 106.67,179.92 107.33,180.48 108.00,181.04 108.67,181.58 109.33,182.12 110.00,182.66 110.67,183.19 111.33,183.71 112.00,184.23 112.67,184.74 113.33,185.25 114.00,185.75 114.67,186.25 115.33,186.74 116.00,187.23 116.67,187.71 117.33,188.19 118.00,188.66 118.67,189.13 119.33,189.60 120.00,190.06 120.67,190.51 121.33,190.96 122.00,191.41 122.67,191.86 123.33,192.30 124.00,192.73 124.67,193.16 125.33,193.59 126.00,194.02 126.67,194.44 127.33,194.86 128.00,195.27 128.67,195.68 129.33,196.09 130.00,196.49 130.67,196.89 131.33,197.29 132.00,197.69 132.67,198.08 133.33,198.47 134.00,198.85 134.67,199.23 135.33,199.61 136.00,199.99 136.67,200.36 137.33,200.73 138.00,201.10 138.67,201.47 139.33,201.83 140.00,202.19 140.67,202.55 141.33,202.90 142.00,203.25 142.67,203.60 143.33,203.95 144.00,204.30 144.67,204.64 145.33,204.98 146.00,205.32 146.67,205.65 147.33,205.99 148.00,206.32 148.67,206.65 149.33,206.97 150.00,207.30 150.67,207.62 151.33,207.94 152.00,208.26 152.67,208.58 153.33,208.89 154.00,209.20 154.67,209.51 155.33,209.82 156.00,210.13 156.67,210.43 157.33,210.74 158.00,211.04 158.67,211.34 159.33,211.64 160.00,211.93 160.67,212.23 161.33,212.52 162.00,212.81 162.67,213.10 163.33,213.38 164.00,213.67 164.67,213.95 165.33,214.24 166.00,214.52 166.67,214.79 167.33,215.07 168.00,215.35 168.67,215.62 169.33,215.90 170.00,216.17 170.67,216.44 171.33,216.71 172.00,216.97 172.67,217.24 173.33,217.50 174.00,217.77 174.67,218.03 175.33,218.29 176.00,218.55 176.67,218.80 177.33,219.06 178.00,219.31 178.67,219.57 179.33,219.82 180.00,220.07 180.67,220.32 181.33,220.57 182.00,220.81 182.67,221.06 183.33,221.31 184.00,221.55 184.67,221.79 185.33,222.03 186.00,222.27 186.67,222.51 187.33,222.75 188.00,222.98 188.67,223.22 189.33,223.45 190.00,223.69 190.67,223.92 191.33,224.15 192.00,224.38 192.67,224.61 193.33,224.84 194.00,225.06 194.67,225.29 195.33,225.51 196.00,225.74 196.67,225.96 197.33,226.18 198.00,226.40 198.67,226.62 199.33,226.84 200.00,227.06 200.67,227.28 201.33,227.49 202.00,227.71 202.67,227.92 203.33,228.13 204.00,228.35 204.67,228.56 205.33,228.77 206.00,228.98 206.67,229.19 207.33,229.39 208.00,229.60 208.67,229.81 209.33,230.01 210.00,230.22 210.67,230.42 211.33,230.62 212.00,230.82 212.67,231.03 213.33,231.23 214.00,231.42 214.67,231.62 215.33,231.82 216.00,232.02 216.67,232.21 217.33,232.41 218.00,232.60 218.67,232.80 219.33,232.99 220.00,233.18 220.67,233.38 221.33,233.57 222.00,233.76 222.67,233.95 223.33,234.14 224.00,234.32 224.67,234.51 225.33,234.70 226.00,234.88 226.67,235.07 227.33,235.25 228.00,235.44 228.67,235.62 229.33,235.80 230.00,235.98 230.67,236.17 231.33,236.35 232.00,236.53 232.67,236.71 233.33,236.88 234.00,237.06 234.67,237.24 235.33,237.42 236.00,237.59 236.67,237.77 237.33,237.94 238.00,238.12 238.67,238.29 239.33,238.46 240.00,238.64 240.67,238.81 241.33,238.98 242.00,239.15 242.67,239.32 243.33,239.49 244.00,239.66 244.67,239.83 245.33,239.99 246.00,240.16 246.67,240.33 247.33,240.49 248.00,240.66 248.67,240.82 249.33,240.99 250.00,241.15 250.67,241.31 251.33,241.48 252.00,241.64 252.67,241.80 253.33,241.96 254.00,242.12 254.67,242.28 255.33,242.44 256.00,242.60 256.67,242.76 257.33,242.92 258.00,243.08 258.67,243.23 259.33,243.39 260.00,243.55 260.67,243.70 261.33,243.86 262.00,244.01 262.67,244.17 263.33,244.32 264.00,244.47 264.67,244.63 265.33,244.78 266.00,244.93 266.67,245.08 267.33,245.23 268.00,245.38 268.67,245.53 269.33,245.68 270.00,245.83 270.67,245.98 271.33,246.13 272.00,246.28 272.67,246.42 273.33,246.57 274.00,246.72 274.67,246.86 275.33,247.01 276.00,247.15 276.67,247.30 277.33,247.44 278.00,247.59 278.67,247.73 279.33,247.87 280.00,248.01 280.67,248.16 281.33,248.30 282.00,248.44 282.67,248.58 283.33,248.72 284.00,248.86 284.67,249.00 285.33,249.14 286.00,249.28 286.67,249.42 287.33,249.56 288.00,249.69 288.67,249.83 289.33,249.97 290.00,250.11 290.67,250.24 291.33,250.38 292.00,250.51 292.67,250.65 293.33,250.78 294.00,250.92 294.67,251.05 295.33,251.19 296.00,251.32 296.67,251.45 297.33,251.59 298.00,251.72 298.67,251.85 299.33,251.98 300.00,252.11 300.67,252.24 301.33,252.37 302.00,252.50 302.67,252.63 303.33,252.76 304.00,252.89 304.67,253.02 305.33,253.15 306.00,253.28 306.67,253.41 307.33,253.53 308.00,253.66 308.67,253.79 309.33,253.92 310.00,254.04 310.67,254.17 311.33,254.29 312.00,254.42 312.67,254.54 313.33,254.67 314.00,254.79 314.67,254.92 315.33,255.04 316.00,255.16 316.67,255.29 317.33,255.41 318.00,255.53 318.67,255.66 319.33,255.78 320.00,255.90 320.67,256.02 321.33,256.14 322.00,256.26 322.67,256.38 323.33,256.50 324.00,256.62 324.67,256.74 325.33,256.86 326.00,256.98 326.67,257.10 327.33,257.22 328.00,257.34 328.67,257.45 329.33,257.57 330.00,257.69 330.67,257.81 331.33,257.92 332.00,258.04 332.67,258.16 333.33,258.27 334.00,258.39 334.67,258.50 335.33,258.62 336.00,258.73 336.67,258.85 337.33,258.96 338.00,259.08 338.67,259.19 339.33,259.30 340.00,259.42 340.67,259.53 341.33,259.64 342.00,259.75 342.67,259.87 343.33,259.98 344.00,260.09 344.67,260.20 345.33,260.31 346.00,260.42 346.67,260.54 347.33,260.65 348.00,260.76 348.67,260.87 349.33,260.98 350.00,261.09 350.67,261.19 351.33,261.30 352.00,261.41 352.67,261.52 353.33,261.63 354.00,261.74 354.67,261.85 355.33,261.95 356.00,262.06 356.67,262.17 357.33,262.27 358.00,262.38 358.67,262.49 359.33,262.59 360.00,262.70 360.67,262.81 361.33,262.91 362.00,263.02 362.67,263.12 363.33,263.23 364.00,263.33 364.67,263.44 365.33,263.54 366.00,263.64 366.67,263.75 367.33,263.85 368.00,263.96 368.67,264.06 369.33,264.16 370.00,264.26 370.67,264.37 371.33,264.47 372.00,264.57 372.67,264.67 373.33,264.77 374.00,264.88 374.67,264.98 375.33,265.08 376.00,265.18 376.67,265.28 377.33,265.38 378.00,265.48 378.67,265.58 379.33,265.68 380.00,265.78 380.67,265.88 381.33,265.98 382.00,266.08 382.67,266.18 383.33,266.28 384.00,266.37 384.67,266.47 385.33,266.57 386.00,266.67 386.67,266.77 387.33,266.86 388.00,266.96 388.67,267.06 389.33,267.15 390.00,267.25 390.67,267.35 391.33,267.44 392.00,267.54 392.67,267.64 393.33,267.73 394.00,267.83 394.67,267.92 395.33,268.02 396.00,268.11 396.67,268.21 397.33,268.30 398.00,268.40 398.67,268.49 399.33,268.59 400.00,268.68 400.67,268.77 401.33,268.87 402.00,268.96 402.67,269.05 403.33,269.15 404.00,269.24 404.67,269.33 405.33,269.43 406.00,269.52 406.67,269.61 407.33,269.70 408.00,269.79 408.67,269.89 409.33,269.98 410.00,270.07 410.67,270.16 411.33,270.25 412.00,270.34 412.67,270.43 413.33,270.52 414.00,270.61 414.67,270.70 415.33,270.79 416.00,270.88 416.67,270.97 417.33,271.06 418.00,271.15 418.67,271.24 419.33,271.33 420.00,271.42 420.67,271.51 421.33,271.60 422.00,271.69 422.67,271.77 423.33,271.86 424.00,271.95 424.67,272.04 425.33,272.13 426.00,272.21 426.67,272.30 427.33,272.39 428.00,272.48 428.67,272.56 429.33,272.65 430.00,272.74 430.67,272.82 431.33,272.91 432.00,272.99 432.67,273.08 433.33,273.17 434.00,273.25 434.67,273.34 435.33,273.42 436.00,273.51 436.67,273.59 437.33,273.68 438.00,273.76 438.67,273.85 439.33,273.93 440.00,274.02 440.67,274.10 441.33,274.18 442.00,274.27 442.67,274.35 443.33,274.44 444.00,274.52 444.67,274.60 445.33,274.69 446.00,274.77 446.67,274.85 447.33,274.94 448.00,275.02 448.67,275.10 449.33,275.18 450.00,275.27 450.67,275.35 451.33,275.43 452.00,275.51 452.67,275.59 453.33,275.67 454.00,275.76 454.67,275.84 455.33,275.92 456.00,276.00" fill="none" stroke="#a8641a" stroke-width="2.6" stroke-linecap="round" stroke-linejoin="round"/>
<polyline points="56.00,89.65 56.67,94.00 57.33,98.05 58.00,101.84 58.67,105.41 59.33,108.78 60.00,111.97 60.67,115.01 61.33,117.90 62.00,120.66 62.67,123.31 63.33,125.84 64.00,128.28 64.67,130.62 65.33,132.88 66.00,135.06 66.67,137.17 67.33,139.21 68.00,141.19 68.67,143.10 69.33,144.96 70.00,146.77 70.67,148.53 71.33,150.23 72.00,151.90 72.67,153.52 73.33,155.10 74.00,156.64 74.67,158.15 75.33,159.62 76.00,161.06 76.67,162.46 77.33,163.84 78.00,165.18 78.67,166.50 79.33,167.79 80.00,169.05 80.67,170.29 81.33,171.51 82.00,172.70 82.67,173.87 83.33,175.02 84.00,176.15 84.67,177.25 85.33,178.34 86.00,179.41 86.67,180.46 87.33,181.50 88.00,182.51 88.67,183.51 89.33,184.50 90.00,185.46 90.67,186.42 91.33,187.35 92.00,188.28 92.67,189.19 93.33,190.08 94.00,190.97 94.67,191.84 95.33,192.70 96.00,193.54 96.67,194.37 97.33,195.20 98.00,196.01 98.67,196.81 99.33,197.60 100.00,198.37 100.67,199.14 101.33,199.90 102.00,200.65 102.67,201.39 103.33,202.11 104.00,202.83 104.67,203.54 105.33,204.25 106.00,204.94 106.67,205.62 107.33,206.30 108.00,206.97 108.67,207.63 109.33,208.28 110.00,208.92 110.67,209.56 111.33,210.19 112.00,210.81 112.67,211.43 113.33,212.04 114.00,212.64 114.67,213.23 115.33,213.82 116.00,214.40 116.67,214.98 117.33,215.55 118.00,216.11 118.67,216.66 119.33,217.21 120.00,217.76 120.67,218.30 121.33,218.83 122.00,219.36 122.67,219.88 123.33,220.40 124.00,220.91 124.67,221.41 125.33,221.91 126.00,222.41 126.67,222.90 127.33,223.39 128.00,223.87 128.67,224.34 129.33,224.81 130.00,225.28 130.67,225.74 131.33,226.20 132.00,226.65 132.67,227.10 133.33,227.55 134.00,227.99 134.67,228.42 135.33,228.85 136.00,229.28 136.67,229.70 137.33,230.12 138.00,230.54 138.67,230.95 139.33,231.36 140.00,231.76 140.67,232.16 141.33,232.56 142.00,232.95 142.67,233.34 143.33,233.72 144.00,234.10 144.67,234.48 145.33,234.86 146.00,235.23 146.67,235.60 147.33,235.96 148.00,236.32 148.67,236.68 149.33,237.04 150.00,237.39 150.67,237.74 151.33,238.08 152.00,238.42 152.67,238.76 153.33,239.10 154.00,239.43 154.67,239.76 155.33,240.09 156.00,240.42 156.67,240.74 157.33,241.06 158.00,241.37 158.67,241.69 159.33,242.00 160.00,242.31 160.67,242.61 161.33,242.91 162.00,243.21 162.67,243.51 163.33,243.81 164.00,244.10 164.67,244.39 165.33,244.68 166.00,244.96 166.67,245.24 167.33,245.53 168.00,245.80 168.67,246.08 169.33,246.35 170.00,246.62 170.67,246.89 171.33,247.16 172.00,247.42 172.67,247.68 173.33,247.94 174.00,248.20 174.67,248.46 175.33,248.71 176.00,248.96 176.67,249.21 177.33,249.46 178.00,249.70 178.67,249.95 179.33,250.19 180.00,250.43 180.67,250.66 181.33,250.90 182.00,251.13 182.67,251.36 183.33,251.59 184.00,251.82 184.67,252.04 185.33,252.27 186.00,252.49 186.67,252.71 187.33,252.93 188.00,253.14 188.67,253.36 189.33,253.57 190.00,253.78 190.67,253.99 191.33,254.20 192.00,254.40 192.67,254.61 193.33,254.81 194.00,255.01 194.67,255.21 195.33,255.41 196.00,255.61 196.67,255.80 197.33,255.99 198.00,256.18 198.67,256.37 199.33,256.56 200.00,256.75 200.67,256.93 201.33,257.12 202.00,257.30 202.67,257.48 203.33,257.66 204.00,257.84 204.67,258.01 205.33,258.19 206.00,258.36 206.67,258.53 207.33,258.70 208.00,258.87 208.67,259.04 209.33,259.20 210.00,259.37 210.67,259.53 211.33,259.69 212.00,259.86 212.67,260.02 213.33,260.17 214.00,260.33 214.67,260.49 215.33,260.64 216.00,260.79 216.67,260.95 217.33,261.10 218.00,261.25 218.67,261.39 219.33,261.54 220.00,261.69 220.67,261.83 221.33,261.97 222.00,262.12 222.67,262.26 223.33,262.40 224.00,262.54 224.67,262.67 225.33,262.81 226.00,262.94 226.67,263.08 227.33,263.21 228.00,263.34 228.67,263.47 229.33,263.60 230.00,263.73 230.67,263.86 231.33,263.99 232.00,264.11 232.67,264.24 233.33,264.36 234.00,264.48 234.67,264.60 235.33,264.72 236.00,264.84 236.67,264.96 237.33,265.08 238.00,265.19 238.67,265.31 239.33,265.42 240.00,265.54 240.67,265.65 241.33,265.76 242.00,265.87 242.67,265.98 243.33,266.09 244.00,266.20 244.67,266.30 245.33,266.41 246.00,266.51 246.67,266.62 247.33,266.72 248.00,266.82 248.67,266.92 249.33,267.02 250.00,267.12 250.67,267.22 251.33,267.32 252.00,267.42 252.67,267.51 253.33,267.61 254.00,267.70 254.67,267.80 255.33,267.89 256.00,267.98 256.67,268.07 257.33,268.16 258.00,268.25 258.67,268.34 259.33,268.43 260.00,268.52 260.67,268.60 261.33,268.69 262.00,268.77 262.67,268.86 263.33,268.94 264.00,269.02 264.67,269.11 265.33,269.19 266.00,269.27 266.67,269.35 267.33,269.43 268.00,269.50 268.67,269.58 269.33,269.66 270.00,269.73 270.67,269.81 271.33,269.89 272.00,269.96 272.67,270.03 273.33,270.11 274.00,270.18 274.67,270.25 275.33,270.32 276.00,270.39 276.67,270.46 277.33,270.53 278.00,270.60 278.67,270.66 279.33,270.73 280.00,270.80 280.67,270.86 281.33,270.93 282.00,270.99 282.67,271.06 283.33,271.12 284.00,271.18 284.67,271.24 285.33,271.30 286.00,271.36 286.67,271.42 287.33,271.48 288.00,271.54 288.67,271.60 289.33,271.66 290.00,271.72 290.67,271.77 291.33,271.83 292.00,271.89 292.67,271.94 293.33,271.99 294.00,272.05 294.67,272.10 295.33,272.16 296.00,272.21 296.67,272.26 297.33,272.31 298.00,272.36 298.67,272.41 299.33,272.46 300.00,272.51 300.67,272.56 301.33,272.61 302.00,272.66 302.67,272.70 303.33,272.75 304.00,272.80 304.67,272.84 305.33,272.89 306.00,272.93 306.67,272.98 307.33,273.02 308.00,273.06 308.67,273.11 309.33,273.15 310.00,273.19 310.67,273.23 311.33,273.27 312.00,273.31 312.67,273.35 313.33,273.39 314.00,273.43 314.67,273.47 315.33,273.51 316.00,273.55 316.67,273.59 317.33,273.62 318.00,273.66 318.67,273.70 319.33,273.73 320.00,273.77 320.67,273.80 321.33,273.84 322.00,273.87 322.67,273.91 323.33,273.94 324.00,273.97 324.67,274.01 325.33,274.04 326.00,274.07 326.67,274.10 327.33,274.13 328.00,274.16 328.67,274.20 329.33,274.23 330.00,274.26 330.67,274.28 331.33,274.31 332.00,274.34 332.67,274.37 333.33,274.40 334.00,274.43 334.67,274.45 335.33,274.48 336.00,274.51 336.67,274.53 337.33,274.56 338.00,274.59 338.67,274.61 339.33,274.64 340.00,274.66 340.67,274.68 341.33,274.71 342.00,274.73 342.67,274.76 343.33,274.78 344.00,274.80 344.67,274.82 345.33,274.85 346.00,274.87 346.67,274.89 347.33,274.91 348.00,274.93 348.67,274.95 349.33,274.97 350.00,274.99 350.67,275.01 351.33,275.03 352.00,275.05 352.67,275.07 353.33,275.09 354.00,275.11 354.67,275.13 355.33,275.15 356.00,275.16 356.67,275.18 357.33,275.20 358.00,275.21 358.67,275.23 359.33,275.25 360.00,275.26 360.67,275.28 361.33,275.30 362.00,275.31 362.67,275.33 363.33,275.34 364.00,275.36 364.67,275.37 365.33,275.39 366.00,275.40 366.67,275.41 367.33,275.43 368.00,275.44 368.67,275.45 369.33,275.47 370.00,275.48 370.67,275.49 371.33,275.50 372.00,275.52 372.67,275.53 373.33,275.54 374.00,275.55 374.67,275.56 375.33,275.57 376.00,275.58 376.67,275.60 377.33,275.61 378.00,275.62 378.67,275.63 379.33,275.64 380.00,275.65 380.67,275.66 381.33,275.66 382.00,275.67 382.67,275.68 383.33,275.69 384.00,275.70 384.67,275.71 385.33,275.72 386.00,275.73 386.67,275.73 387.33,275.74 388.00,275.75 388.67,275.76 389.33,275.76 390.00,275.77 390.67,275.78 391.33,275.79 392.00,275.79 392.67,275.80 393.33,275.81 394.00,275.81 394.67,275.82 395.33,275.82 396.00,275.83 396.67,275.84 397.33,275.84 398.00,275.85 398.67,275.85 399.33,275.86 400.00,275.86 400.67,275.87 401.33,275.87 402.00,275.88 402.67,275.88 403.33,275.89 404.00,275.89 404.67,275.89 405.33,275.90 406.00,275.90 406.67,275.91 407.33,275.91 408.00,275.91 408.67,275.92 409.33,275.92 410.00,275.92 410.67,275.93 411.33,275.93 412.00,275.93 412.67,275.94 413.33,275.94 414.00,275.94 414.67,275.95 415.33,275.95 416.00,275.95 416.67,275.95 417.33,275.96 418.00,275.96 418.67,275.96 419.33,275.96 420.00,275.96 420.67,275.97 421.33,275.97 422.00,275.97 422.67,275.97 423.33,275.97 424.00,275.98 424.67,275.98 425.33,275.98 426.00,275.98 426.67,275.98 427.33,275.98 428.00,275.98 428.67,275.98 429.33,275.99 430.00,275.99 430.67,275.99 431.33,275.99 432.00,275.99 432.67,275.99 433.33,275.99 434.00,275.99 434.67,275.99 435.33,275.99 436.00,275.99 436.67,275.99 437.33,276.00 438.00,276.00 438.67,276.00 439.33,276.00 440.00,276.00 440.67,276.00 441.33,276.00 442.00,276.00 442.67,276.00 443.33,276.00 444.00,276.00 444.67,276.00 445.33,276.00 446.00,276.00 446.67,276.00 447.33,276.00 448.00,276.00 448.67,276.00 449.33,276.00 450.00,276.00 450.67,276.00 451.33,276.00 452.00,276.00 452.67,276.00 453.33,276.00 454.00,276.00 454.67,276.00 455.33,276.00 456.00,276.00" fill="none" stroke="#1f6e5f" stroke-width="2.6" stroke-linecap="round" stroke-linejoin="round"/>
<line x1="332.4" y1="38.0" x2="348.4" y2="38.0" stroke="#a8641a" stroke-width="2.6" stroke-linecap="round"/>
<text x="354.4" y="42.0" font-size="10.5" fill="#a8641a" text-anchor="start">cross-entropy</text>
<line x1="219.2" y1="38.0" x2="235.2" y2="38.0" stroke="#1f6e5f" stroke-width="2.6" stroke-linecap="round"/>
<text x="241.2" y="42.0" font-size="10.5" fill="#1f6e5f" text-anchor="start">focal (γ=2)</text>
<text x="56" y="18" font-size="14" fill="#1c201f" font-weight="700" font-family="Georgia,ui-serif,serif">Focal Loss vs. Cross-Entropy</text>
<text x="456" y="18" font-size="10.5" fill="#565f5b" text-anchor="end">FL(pₜ) = −(1−pₜ)ᵞ log(pₜ)</text>
</svg>