<svg viewBox="0 0 480 320" xmlns="http://www.w3.org/2000/svg" font-family="ui-monospace,SFMono-Regular,Menlo,Consolas,monospace">
<rect x="0" y="0" width="480" height="320" fill="#fffef9"/>
<line x1="56.0" y1="28" x2="56.0" y2="276" stroke="#1c201f1f" stroke-width="1"/>
<line x1="136.0" y1="28" x2="136.0" y2="276" stroke="#1c201f1f" stroke-width="1"/>
<line x1="216.0" y1="28" x2="216.0" y2="276" stroke="#1c201f1f" stroke-width="1"/>
<line x1="296.0" y1="28" x2="296.0" y2="276" stroke="#1c201f1f" stroke-width="1"/>
<line x1="376.0" y1="28" x2="376.0" y2="276" stroke="#1c201f1f" stroke-width="1"/>
<line x1="456.0" y1="28" x2="456.0" y2="276" stroke="#1c201f1f" stroke-width="1"/>
<line x1="56" y1="276.0" x2="456" y2="276.0" stroke="#1c201f1f" stroke-width="1"/>
<line x1="56" y1="193.3" x2="456" y2="193.3" stroke="#1c201f1f" stroke-width="1"/>
<line x1="56" y1="110.7" x2="456" y2="110.7" stroke="#1c201f1f" stroke-width="1"/>
<line x1="56" y1="28.0" x2="456" y2="28.0" stroke="#1c201f1f" stroke-width="1"/>
<line x1="216.0" y1="28" x2="216.0" y2="276" stroke="#1c201f4a" stroke-width="1.4"/>
<line x1="56" y1="276.0" x2="456" y2="276.0" stroke="#1c201f4a" stroke-width="1.4"/>
<rect x="56" y="28" width="400" height="248" fill="none" stroke="#1c201f4a" stroke-width="1"/>
<text x="56.0" y="292" font-size="10" fill="#565f5b" text-anchor="middle">-2</text>
<text x="136.0" y="292" font-size="10" fill="#565f5b" text-anchor="middle">-1</text>
<text x="216.0" y="292" font-size="10" fill="#565f5b" text-anchor="middle">0</text>
<text x="296.0" y="292" font-size="10" fill="#565f5b" text-anchor="middle">1</text>
<text x="376.0" y="292" font-size="10" fill="#565f5b" text-anchor="middle">2</text>
<text x="456.0" y="292" font-size="10" fill="#565f5b" text-anchor="middle">3</text>
<text x="48" y="279.0" font-size="10" fill="#565f5b" text-anchor="end">0</text>
<text x="48" y="196.3" font-size="10" fill="#565f5b" text-anchor="end">1</text>
<text x="48" y="113.7" font-size="10" fill="#565f5b" text-anchor="end">2</text>
<text x="48" y="31.0" font-size="10" fill="#565f5b" text-anchor="end">3</text>
<text x="256.0" y="308" font-size="11" fill="#565f5b" text-anchor="middle">margin  m = y·f(x)</text>
<text x="16" y="152.0" font-size="11" fill="#565f5b" text-anchor="middle" transform="rotate(-90 16 152.0)">L(m)</text>
<polyline points="56.00,28.00 57.00,29.03 58.00,30.07 59.00,31.10 60.00,32.13 61.00,33.17 62.00,34.20 63.00,35.23 64.00,36.27 65.00,37.30 66.00,38.33 67.00,39.37 68.00,40.40 69.00,41.43 70.00,42.47 71.00,43.50 72.00,44.53 73.00,45.57 74.00,46.60 75.00,47.63 76.00,48.67 77.00,49.70 78.00,50.73 79.00,51.77 80.00,52.80 81.00,53.83 82.00,54.87 83.00,55.90 84.00,56.93 85.00,57.97 86.00,59.00 87.00,60.03 88.00,61.07 89.00,62.10 90.00,63.13 91.00,64.17 92.00,65.20 93.00,66.23 94.00,67.27 95.00,68.30 96.00,69.33 97.00,70.37 98.00,71.40 99.00,72.43 100.00,73.47 101.00,74.50 102.00,75.53 103.00,76.57 104.00,77.60 105.00,78.63 106.00,79.67 107.00,80.70 108.00,81.73 109.00,82.77 110.00,83.80 111.00,84.83 112.00,85.87 113.00,86.90 114.00,87.93 115.00,88.97 116.00,90.00 117.00,91.03 118.00,92.07 119.00,93.10 120.00,94.13 121.00,95.17 122.00,96.20 123.00,97.23 124.00,98.27 125.00,99.30 126.00,100.33 127.00,101.37 128.00,102.40 129.00,103.43 130.00,104.47 131.00,105.50 132.00,106.53 133.00,107.57 134.00,108.60 135.00,109.63 136.00,110.67 137.00,111.70 138.00,112.73 139.00,113.77 140.00,114.80 141.00,115.83 142.00,116.87 143.00,117.90 144.00,118.93 145.00,119.97 146.00,121.00 147.00,122.03 148.00,123.07 149.00,124.10 150.00,125.13 151.00,126.17 152.00,127.20 153.00,128.23 154.00,129.27 155.00,130.30 156.00,131.33 157.00,132.37 158.00,133.40 159.00,134.43 160.00,135.47 161.00,136.50 162.00,137.53 163.00,138.57 164.00,139.60 165.00,140.63 166.00,141.67 167.00,142.70 168.00,143.73 169.00,144.77 170.00,145.80 171.00,146.83 172.00,147.87 173.00,148.90 174.00,149.93 175.00,150.97 176.00,152.00 177.00,153.03 178.00,154.07 179.00,155.10 180.00,156.13 181.00,157.17 182.00,158.20 183.00,159.23 184.00,160.27 185.00,161.30 186.00,162.33 187.00,163.37 188.00,164.40 189.00,165.43 190.00,166.47 191.00,167.50 192.00,168.53 193.00,169.57 194.00,170.60 195.00,171.63 196.00,172.67 197.00,173.70 198.00,174.73 199.00,175.77 200.00,176.80 201.00,177.83 202.00,178.87 203.00,179.90 204.00,180.93 205.00,181.97 206.00,183.00 207.00,184.03 208.00,185.07 209.00,186.10 210.00,187.13 211.00,188.17 212.00,189.20 213.00,190.23 214.00,191.27 215.00,192.30 216.00,193.33 217.00,194.37 218.00,195.40 219.00,196.43 220.00,197.47 221.00,198.50 222.00,199.53 223.00,200.57 224.00,201.60 225.00,202.63 226.00,203.67 227.00,204.70 228.00,205.73 229.00,206.77 230.00,207.80 231.00,208.83 232.00,209.87 233.00,210.90 234.00,211.93 235.00,212.97 236.00,214.00 237.00,215.03 238.00,216.07 239.00,217.10 240.00,218.13 241.00,219.17 242.00,220.20 243.00,221.23 244.00,222.27 245.00,223.30 246.00,224.33 247.00,225.37 248.00,226.40 249.00,227.43 250.00,228.47 251.00,229.50 252.00,230.53 253.00,231.57 254.00,232.60 255.00,233.63 256.00,234.67 257.00,235.70 258.00,236.73 259.00,237.77 260.00,238.80 261.00,239.83 262.00,240.87 263.00,241.90 264.00,242.93 265.00,243.97 266.00,245.00 267.00,246.03 268.00,247.07 269.00,248.10 270.00,249.13 271.00,250.17 272.00,251.20 273.00,252.23 274.00,253.27 275.00,254.30 276.00,255.33 277.00,256.37 278.00,257.40 279.00,258.43 280.00,259.47 281.00,260.50 282.00,261.53 283.00,262.57 284.00,263.60 285.00,264.63 286.00,265.67 287.00,266.70 288.00,267.73 289.00,268.77 290.00,269.80 291.00,270.83 292.00,271.87 293.00,272.90 294.00,273.93 295.00,274.97 296.00,276.00 297.00,276.00 298.00,276.00 299.00,276.00 300.00,276.00 301.00,276.00 302.00,276.00 303.00,276.00 304.00,276.00 305.00,276.00 306.00,276.00 307.00,276.00 308.00,276.00 309.00,276.00 310.00,276.00 311.00,276.00 312.00,276.00 313.00,276.00 314.00,276.00 315.00,276.00 316.00,276.00 317.00,276.00 318.00,276.00 319.00,276.00 320.00,276.00 321.00,276.00 322.00,276.00 323.00,276.00 324.00,276.00 325.00,276.00 326.00,276.00 327.00,276.00 328.00,276.00 329.00,276.00 330.00,276.00 331.00,276.00 332.00,276.00 333.00,276.00 334.00,276.00 335.00,276.00 336.00,276.00 337.00,276.00 338.00,276.00 339.00,276.00 340.00,276.00 341.00,276.00 342.00,276.00 343.00,276.00 344.00,276.00 345.00,276.00 346.00,276.00 347.00,276.00 348.00,276.00 349.00,276.00 350.00,276.00 351.00,276.00 352.00,276.00 353.00,276.00 354.00,276.00 355.00,276.00 356.00,276.00 357.00,276.00 358.00,276.00 359.00,276.00 360.00,276.00 361.00,276.00 362.00,276.00 363.00,276.00 364.00,276.00 365.00,276.00 366.00,276.00 367.00,276.00 368.00,276.00 369.00,276.00 370.00,276.00 371.00,276.00 372.00,276.00 373.00,276.00 374.00,276.00 375.00,276.00 376.00,276.00 377.00,276.00 378.00,276.00 379.00,276.00 380.00,276.00 381.00,276.00 382.00,276.00 383.00,276.00 384.00,276.00 385.00,276.00 386.00,276.00 387.00,276.00 388.00,276.00 389.00,276.00 390.00,276.00 391.00,276.00 392.00,276.00 393.00,276.00 394.00,276.00 395.00,276.00 396.00,276.00 397.00,276.00 398.00,276.00 399.00,276.00 400.00,276.00 401.00,276.00 402.00,276.00 403.00,276.00 404.00,276.00 405.00,276.00 406.00,276.00 407.00,276.00 408.00,276.00 409.00,276.00 410.00,276.00 411.00,276.00 412.00,276.00 413.00,276.00 414.00,276.00 415.00,276.00 416.00,276.00 417.00,276.00 418.00,276.00 419.00,276.00 420.00,276.00 421.00,276.00 422.00,276.00 423.00,276.00 424.00,276.00 425.00,276.00 426.00,276.00 427.00,276.00 428.00,276.00 429.00,276.00 430.00,276.00 431.00,276.00 432.00,276.00 433.00,276.00 434.00,276.00 435.00,276.00 436.00,276.00 437.00,276.00 438.00,276.00 439.00,276.00 440.00,276.00 441.00,276.00 442.00,276.00 443.00,276.00 444.00,276.00 445.00,276.00 446.00,276.00 447.00,276.00 448.00,276.00 449.00,276.00 450.00,276.00 451.00,276.00 452.00,276.00 453.00,276.00 454.00,276.00 455.00,276.00 456.00,276.00" fill="none" stroke="#a8641a" stroke-width="2.6" stroke-linecap="round" stroke-linejoin="round"/>
<line x1="256.0" y1="234.7" x2="256.0" y2="276" stroke="#1f6e5f" stroke-width="1" stroke-dasharray="3 3"/>
<line x1="56" y1="234.7" x2="256.0" y2="234.7" stroke="#1f6e5f" stroke-width="1" stroke-dasharray="3 3"/>
<circle cx="256.0" cy="234.7" r="4" fill="#1f6e5f"/>
<text x="264.0" y="226.7" font-size="11" fill="#1f6e5f" text-anchor="start" font-weight="600">L(0.5) = 0.5</text>
<text x="56" y="18" font-size="14" fill="#1c201f" font-weight="700" font-family="Georgia,ui-serif,serif">Hinge Loss</text>
<text x="456" y="18" font-size="10.5" fill="#565f5b" text-anchor="end">L(m) = max(0, 1 − m)</text>
</svg>