<svg viewBox="0 0 480 320" xmlns="http://www.w3.org/2000/svg" font-family="ui-monospace,SFMono-Regular,Menlo,Consolas,monospace">
<rect x="0" y="0" width="480" height="320" fill="#fffef9"/>
<line x1="56.0" y1="28" x2="56.0" y2="276" stroke="#1c201f1f" stroke-width="1"/>
<line x1="156.0" y1="28" x2="156.0" y2="276" stroke="#1c201f1f" stroke-width="1"/>
<line x1="256.0" y1="28" x2="256.0" y2="276" stroke="#1c201f1f" stroke-width="1"/>
<line x1="356.0" y1="28" x2="356.0" y2="276" stroke="#1c201f1f" stroke-width="1"/>
<line x1="456.0" y1="28" x2="456.0" y2="276" stroke="#1c201f1f" stroke-width="1"/>
<line x1="56" y1="276.0" x2="456" y2="276.0" stroke="#1c201f1f" stroke-width="1"/>
<line x1="56" y1="214.0" x2="456" y2="214.0" stroke="#1c201f1f" stroke-width="1"/>
<line x1="56" y1="152.0" x2="456" y2="152.0" stroke="#1c201f1f" stroke-width="1"/>
<line x1="56" y1="90.0" x2="456" y2="90.0" stroke="#1c201f1f" stroke-width="1"/>
<line x1="56" y1="28.0" x2="456" y2="28.0" stroke="#1c201f1f" stroke-width="1"/>
<line x1="256.0" y1="28" x2="256.0" y2="276" stroke="#1c201f4a" stroke-width="1.4"/>
<line x1="56" y1="276.0" x2="456" y2="276.0" stroke="#1c201f4a" stroke-width="1.4"/>
<rect x="56" y="28" width="400" height="248" fill="none" stroke="#1c201f4a" stroke-width="1"/>
<text x="56.0" y="292" font-size="10" fill="#565f5b" text-anchor="middle">-3</text>
<text x="156.0" y="292" font-size="10" fill="#565f5b" text-anchor="middle">-1.5</text>
<text x="256.0" y="292" font-size="10" fill="#565f5b" text-anchor="middle">0</text>
<text x="356.0" y="292" font-size="10" fill="#565f5b" text-anchor="middle">1.5</text>
<text x="456.0" y="292" font-size="10" fill="#565f5b" text-anchor="middle">3</text>
<text x="48" y="279.0" font-size="10" fill="#565f5b" text-anchor="end">0</text>
<text x="48" y="217.0" font-size="10" fill="#565f5b" text-anchor="end">0.75</text>
<text x="48" y="155.0" font-size="10" fill="#565f5b" text-anchor="end">1.5</text>
<text x="48" y="93.0" font-size="10" fill="#565f5b" text-anchor="end">2.25</text>
<text x="48" y="31.0" font-size="10" fill="#565f5b" text-anchor="end">3</text>
<text x="256.0" y="308" font-size="11" fill="#565f5b" text-anchor="middle">error  e = y − ŷ</text>
<text x="16" y="152.0" font-size="11" fill="#565f5b" text-anchor="middle" transform="rotate(-90 16 152.0)">L(e)</text>
<polyline points="56.00,69.33 57.00,70.57 58.00,71.81 59.00,73.05 60.00,74.29 61.00,75.53 62.00,76.77 63.00,78.01 64.00,79.25 65.00,80.49 66.00,81.73 67.00,82.97 68.00,84.21 69.00,85.45 70.00,86.69 71.00,87.93 72.00,89.17 73.00,90.41 74.00,91.65 75.00,92.89 76.00,94.13 77.00,95.37 78.00,96.61 79.00,97.85 80.00,99.09 81.00,100.33 82.00,101.57 83.00,102.81 84.00,104.05 85.00,105.29 86.00,106.53 87.00,107.77 88.00,109.01 89.00,110.25 90.00,111.49 91.00,112.73 92.00,113.97 93.00,115.21 94.00,116.45 95.00,117.69 96.00,118.93 97.00,120.17 98.00,121.41 99.00,122.65 100.00,123.89 101.00,125.13 102.00,126.37 103.00,127.61 104.00,128.85 105.00,130.09 106.00,131.33 107.00,132.57 108.00,133.81 109.00,135.05 110.00,136.29 111.00,137.53 112.00,138.77 113.00,140.01 114.00,141.25 115.00,142.49 116.00,143.73 117.00,144.97 118.00,146.21 119.00,147.45 120.00,148.69 121.00,149.93 122.00,151.17 123.00,152.41 124.00,153.65 125.00,154.89 126.00,156.13 127.00,157.37 128.00,158.61 129.00,159.85 130.00,161.09 131.00,162.33 132.00,163.57 133.00,164.81 134.00,166.05 135.00,167.29 136.00,168.53 137.00,169.77 138.00,171.01 139.00,172.25 140.00,173.49 141.00,174.73 142.00,175.97 143.00,177.21 144.00,178.45 145.00,179.69 146.00,180.93 147.00,182.17 148.00,183.41 149.00,184.65 150.00,185.89 151.00,187.13 152.00,188.37 153.00,189.61 154.00,190.85 155.00,192.09 156.00,193.33 157.00,194.57 158.00,195.81 159.00,197.05 160.00,198.29 161.00,199.53 162.00,200.77 163.00,202.01 164.00,203.25 165.00,204.49 166.00,205.73 167.00,206.97 168.00,208.21 169.00,209.45 170.00,210.69 171.00,211.93 172.00,213.17 173.00,214.41 174.00,215.65 175.00,216.89 176.00,218.13 177.00,219.37 178.00,220.61 179.00,221.85 180.00,223.09 181.00,224.33 182.00,225.57 183.00,226.81 184.00,228.05 185.00,229.29 186.00,230.53 187.00,231.77 188.00,233.01 189.00,234.25 190.00,235.49 191.00,236.71 192.00,237.91 193.00,239.09 194.00,240.25 195.00,241.39 196.00,242.52 197.00,243.63 198.00,244.71 199.00,245.78 200.00,246.84 201.00,247.87 202.00,248.88 203.00,249.88 204.00,250.85 205.00,251.81 206.00,252.75 207.00,253.67 208.00,254.57 209.00,255.46 210.00,256.32 211.00,257.17 212.00,258.00 213.00,258.80 214.00,259.59 215.00,260.37 216.00,261.12 217.00,261.85 218.00,262.57 219.00,263.27 220.00,263.95 221.00,264.61 222.00,265.25 223.00,265.87 224.00,266.48 225.00,267.06 226.00,267.63 227.00,268.18 228.00,268.71 229.00,269.22 230.00,269.71 231.00,270.19 232.00,270.64 233.00,271.08 234.00,271.50 235.00,271.90 236.00,272.28 237.00,272.64 238.00,272.99 239.00,273.31 240.00,273.62 241.00,273.91 242.00,274.18 243.00,274.43 244.00,274.66 245.00,274.87 246.00,275.07 247.00,275.25 248.00,275.40 249.00,275.54 250.00,275.67 251.00,275.77 252.00,275.85 253.00,275.92 254.00,275.96 255.00,275.99 256.00,276.00 257.00,275.99 258.00,275.96 259.00,275.92 260.00,275.85 261.00,275.77 262.00,275.67 263.00,275.54 264.00,275.40 265.00,275.25 266.00,275.07 267.00,274.87 268.00,274.66 269.00,274.43 270.00,274.18 271.00,273.91 272.00,273.62 273.00,273.31 274.00,272.99 275.00,272.64 276.00,272.28 277.00,271.90 278.00,271.50 279.00,271.08 280.00,270.64 281.00,270.19 282.00,269.71 283.00,269.22 284.00,268.71 285.00,268.18 286.00,267.63 287.00,267.06 288.00,266.48 289.00,265.87 290.00,265.25 291.00,264.61 292.00,263.95 293.00,263.27 294.00,262.57 295.00,261.85 296.00,261.12 297.00,260.37 298.00,259.59 299.00,258.80 300.00,258.00 301.00,257.17 302.00,256.32 303.00,255.46 304.00,254.57 305.00,253.67 306.00,252.75 307.00,251.81 308.00,250.85 309.00,249.88 310.00,248.88 311.00,247.87 312.00,246.84 313.00,245.78 314.00,244.71 315.00,243.63 316.00,242.52 317.00,241.39 318.00,240.25 319.00,239.09 320.00,237.91 321.00,236.71 322.00,235.49 323.00,234.25 324.00,233.01 325.00,231.77 326.00,230.53 327.00,229.29 328.00,228.05 329.00,226.81 330.00,225.57 331.00,224.33 332.00,223.09 333.00,221.85 334.00,220.61 335.00,219.37 336.00,218.13 337.00,216.89 338.00,215.65 339.00,214.41 340.00,213.17 341.00,211.93 342.00,210.69 343.00,209.45 344.00,208.21 345.00,206.97 346.00,205.73 347.00,204.49 348.00,203.25 349.00,202.01 350.00,200.77 351.00,199.53 352.00,198.29 353.00,197.05 354.00,195.81 355.00,194.57 356.00,193.33 357.00,192.09 358.00,190.85 359.00,189.61 360.00,188.37 361.00,187.13 362.00,185.89 363.00,184.65 364.00,183.41 365.00,182.17 366.00,180.93 367.00,179.69 368.00,178.45 369.00,177.21 370.00,175.97 371.00,174.73 372.00,173.49 373.00,172.25 374.00,171.01 375.00,169.77 376.00,168.53 377.00,167.29 378.00,166.05 379.00,164.81 380.00,163.57 381.00,162.33 382.00,161.09 383.00,159.85 384.00,158.61 385.00,157.37 386.00,156.13 387.00,154.89 388.00,153.65 389.00,152.41 390.00,151.17 391.00,149.93 392.00,148.69 393.00,147.45 394.00,146.21 395.00,144.97 396.00,143.73 397.00,142.49 398.00,141.25 399.00,140.01 400.00,138.77 401.00,137.53 402.00,136.29 403.00,135.05 404.00,133.81 405.00,132.57 406.00,131.33 407.00,130.09 408.00,128.85 409.00,127.61 410.00,126.37 411.00,125.13 412.00,123.89 413.00,122.65 414.00,121.41 415.00,120.17 416.00,118.93 417.00,117.69 418.00,116.45 419.00,115.21 420.00,113.97 421.00,112.73 422.00,111.49 423.00,110.25 424.00,109.01 425.00,107.77 426.00,106.53 427.00,105.29 428.00,104.05 429.00,102.81 430.00,101.57 431.00,100.33 432.00,99.09 433.00,97.85 434.00,96.61 435.00,95.37 436.00,94.13 437.00,92.89 438.00,91.65 439.00,90.41 440.00,89.17 441.00,87.93 442.00,86.69 443.00,85.45 444.00,84.21 445.00,82.97 446.00,81.73 447.00,80.49 448.00,79.25 449.00,78.01 450.00,76.77 451.00,75.53 452.00,74.29 453.00,73.05 454.00,71.81 455.00,70.57 456.00,69.33" fill="none" stroke="#a8641a" stroke-width="2.6" stroke-linecap="round" stroke-linejoin="round"/>
<line x1="356.0" y1="193.3" x2="356.0" y2="276" stroke="#1f6e5f" stroke-width="1" stroke-dasharray="3 3"/>
<line x1="56" y1="193.3" x2="356.0" y2="193.3" stroke="#1f6e5f" stroke-width="1" stroke-dasharray="3 3"/>
<circle cx="356.0" cy="193.3" r="4" fill="#1f6e5f"/>
<text x="364.0" y="185.3" font-size="11" fill="#1f6e5f" text-anchor="start" font-weight="600">L(1.5) = 1.00</text>
<text x="56" y="18" font-size="14" fill="#1c201f" font-weight="700" font-family="Georgia,ui-serif,serif">Huber Loss (δ = 1)</text>
<text x="456" y="18" font-size="10.5" fill="#565f5b" text-anchor="end">L(e) = ½e² if |e|≤δ, else δ(|e|−½δ)</text>
</svg>