<svg viewBox="0 0 480 320" xmlns="http://www.w3.org/2000/svg" font-family="ui-monospace,SFMono-Regular,Menlo,Consolas,monospace">
<rect x="0" y="0" width="480" height="320" fill="#fffef9"/>
<line x1="56.0" y1="28" x2="56.0" y2="276" stroke="#1c201f1f" stroke-width="1"/>
<line x1="156.0" y1="28" x2="156.0" y2="276" stroke="#1c201f1f" stroke-width="1"/>
<line x1="256.0" y1="28" x2="256.0" y2="276" stroke="#1c201f1f" stroke-width="1"/>
<line x1="356.0" y1="28" x2="356.0" y2="276" stroke="#1c201f1f" stroke-width="1"/>
<line x1="456.0" y1="28" x2="456.0" y2="276" stroke="#1c201f1f" stroke-width="1"/>
<line x1="56" y1="276.0" x2="456" y2="276.0" stroke="#1c201f1f" stroke-width="1"/>
<line x1="56" y1="214.0" x2="456" y2="214.0" stroke="#1c201f1f" stroke-width="1"/>
<line x1="56" y1="152.0" x2="456" y2="152.0" stroke="#1c201f1f" stroke-width="1"/>
<line x1="56" y1="90.0" x2="456" y2="90.0" stroke="#1c201f1f" stroke-width="1"/>
<line x1="56" y1="28.0" x2="456" y2="28.0" stroke="#1c201f1f" stroke-width="1"/>
<line x1="256.0" y1="28" x2="256.0" y2="276" stroke="#1c201f4a" stroke-width="1.4"/>
<line x1="56" y1="276.0" x2="456" y2="276.0" stroke="#1c201f4a" stroke-width="1.4"/>
<rect x="56" y="28" width="400" height="248" fill="none" stroke="#1c201f4a" stroke-width="1"/>
<text x="56.0" y="292" font-size="10" fill="#565f5b" text-anchor="middle">-3</text>
<text x="156.0" y="292" font-size="10" fill="#565f5b" text-anchor="middle">-1.5</text>
<text x="256.0" y="292" font-size="10" fill="#565f5b" text-anchor="middle">0</text>
<text x="356.0" y="292" font-size="10" fill="#565f5b" text-anchor="middle">1.5</text>
<text x="456.0" y="292" font-size="10" fill="#565f5b" text-anchor="middle">3</text>
<text x="48" y="279.0" font-size="10" fill="#565f5b" text-anchor="end">0</text>
<text x="48" y="217.0" font-size="10" fill="#565f5b" text-anchor="end">0.75</text>
<text x="48" y="155.0" font-size="10" fill="#565f5b" text-anchor="end">1.5</text>
<text x="48" y="93.0" font-size="10" fill="#565f5b" text-anchor="end">2.25</text>
<text x="48" y="31.0" font-size="10" fill="#565f5b" text-anchor="end">3</text>
<text x="256.0" y="308" font-size="11" fill="#565f5b" text-anchor="middle">error  e = y − ŷ</text>
<text x="16" y="152.0" font-size="11" fill="#565f5b" text-anchor="middle" transform="rotate(-90 16 152.0)">L(e)</text>
<polyline points="56.00,28.00 57.00,29.24 58.00,30.48 59.00,31.72 60.00,32.96 61.00,34.20 62.00,35.44 63.00,36.68 64.00,37.92 65.00,39.16 66.00,40.40 67.00,41.64 68.00,42.88 69.00,44.12 70.00,45.36 71.00,46.60 72.00,47.84 73.00,49.08 74.00,50.32 75.00,51.56 76.00,52.80 77.00,54.04 78.00,55.28 79.00,56.52 80.00,57.76 81.00,59.00 82.00,60.24 83.00,61.48 84.00,62.72 85.00,63.96 86.00,65.20 87.00,66.44 88.00,67.68 89.00,68.92 90.00,70.16 91.00,71.40 92.00,72.64 93.00,73.88 94.00,75.12 95.00,76.36 96.00,77.60 97.00,78.84 98.00,80.08 99.00,81.32 100.00,82.56 101.00,83.80 102.00,85.04 103.00,86.28 104.00,87.52 105.00,88.76 106.00,90.00 107.00,91.24 108.00,92.48 109.00,93.72 110.00,94.96 111.00,96.20 112.00,97.44 113.00,98.68 114.00,99.92 115.00,101.16 116.00,102.40 117.00,103.64 118.00,104.88 119.00,106.12 120.00,107.36 121.00,108.60 122.00,109.84 123.00,111.08 124.00,112.32 125.00,113.56 126.00,114.80 127.00,116.04 128.00,117.28 129.00,118.52 130.00,119.76 131.00,121.00 132.00,122.24 133.00,123.48 134.00,124.72 135.00,125.96 136.00,127.20 137.00,128.44 138.00,129.68 139.00,130.92 140.00,132.16 141.00,133.40 142.00,134.64 143.00,135.88 144.00,137.12 145.00,138.36 146.00,139.60 147.00,140.84 148.00,142.08 149.00,143.32 150.00,144.56 151.00,145.80 152.00,147.04 153.00,148.28 154.00,149.52 155.00,150.76 156.00,152.00 157.00,153.24 158.00,154.48 159.00,155.72 160.00,156.96 161.00,158.20 162.00,159.44 163.00,160.68 164.00,161.92 165.00,163.16 166.00,164.40 167.00,165.64 168.00,166.88 169.00,168.12 170.00,169.36 171.00,170.60 172.00,171.84 173.00,173.08 174.00,174.32 175.00,175.56 176.00,176.80 177.00,178.04 178.00,179.28 179.00,180.52 180.00,181.76 181.00,183.00 182.00,184.24 183.00,185.48 184.00,186.72 185.00,187.96 186.00,189.20 187.00,190.44 188.00,191.68 189.00,192.92 190.00,194.16 191.00,195.40 192.00,196.64 193.00,197.88 194.00,199.12 195.00,200.36 196.00,201.60 197.00,202.84 198.00,204.08 199.00,205.32 200.00,206.56 201.00,207.80 202.00,209.04 203.00,210.28 204.00,211.52 205.00,212.76 206.00,214.00 207.00,215.24 208.00,216.48 209.00,217.72 210.00,218.96 211.00,220.20 212.00,221.44 213.00,222.68 214.00,223.92 215.00,225.16 216.00,226.40 217.00,227.64 218.00,228.88 219.00,230.12 220.00,231.36 221.00,232.60 222.00,233.84 223.00,235.08 224.00,236.32 225.00,237.56 226.00,238.80 227.00,240.04 228.00,241.28 229.00,242.52 230.00,243.76 231.00,245.00 232.00,246.24 233.00,247.48 234.00,248.72 235.00,249.96 236.00,251.20 237.00,252.44 238.00,253.68 239.00,254.92 240.00,256.16 241.00,257.40 242.00,258.64 243.00,259.88 244.00,261.12 245.00,262.36 246.00,263.60 247.00,264.84 248.00,266.08 249.00,267.32 250.00,268.56 251.00,269.80 252.00,271.04 253.00,272.28 254.00,273.52 255.00,274.76 256.00,276.00 257.00,274.76 258.00,273.52 259.00,272.28 260.00,271.04 261.00,269.80 262.00,268.56 263.00,267.32 264.00,266.08 265.00,264.84 266.00,263.60 267.00,262.36 268.00,261.12 269.00,259.88 270.00,258.64 271.00,257.40 272.00,256.16 273.00,254.92 274.00,253.68 275.00,252.44 276.00,251.20 277.00,249.96 278.00,248.72 279.00,247.48 280.00,246.24 281.00,245.00 282.00,243.76 283.00,242.52 284.00,241.28 285.00,240.04 286.00,238.80 287.00,237.56 288.00,236.32 289.00,235.08 290.00,233.84 291.00,232.60 292.00,231.36 293.00,230.12 294.00,228.88 295.00,227.64 296.00,226.40 297.00,225.16 298.00,223.92 299.00,222.68 300.00,221.44 301.00,220.20 302.00,218.96 303.00,217.72 304.00,216.48 305.00,215.24 306.00,214.00 307.00,212.76 308.00,211.52 309.00,210.28 310.00,209.04 311.00,207.80 312.00,206.56 313.00,205.32 314.00,204.08 315.00,202.84 316.00,201.60 317.00,200.36 318.00,199.12 319.00,197.88 320.00,196.64 321.00,195.40 322.00,194.16 323.00,192.92 324.00,191.68 325.00,190.44 326.00,189.20 327.00,187.96 328.00,186.72 329.00,185.48 330.00,184.24 331.00,183.00 332.00,181.76 333.00,180.52 334.00,179.28 335.00,178.04 336.00,176.80 337.00,175.56 338.00,174.32 339.00,173.08 340.00,171.84 341.00,170.60 342.00,169.36 343.00,168.12 344.00,166.88 345.00,165.64 346.00,164.40 347.00,163.16 348.00,161.92 349.00,160.68 350.00,159.44 351.00,158.20 352.00,156.96 353.00,155.72 354.00,154.48 355.00,153.24 356.00,152.00 357.00,150.76 358.00,149.52 359.00,148.28 360.00,147.04 361.00,145.80 362.00,144.56 363.00,143.32 364.00,142.08 365.00,140.84 366.00,139.60 367.00,138.36 368.00,137.12 369.00,135.88 370.00,134.64 371.00,133.40 372.00,132.16 373.00,130.92 374.00,129.68 375.00,128.44 376.00,127.20 377.00,125.96 378.00,124.72 379.00,123.48 380.00,122.24 381.00,121.00 382.00,119.76 383.00,118.52 384.00,117.28 385.00,116.04 386.00,114.80 387.00,113.56 388.00,112.32 389.00,111.08 390.00,109.84 391.00,108.60 392.00,107.36 393.00,106.12 394.00,104.88 395.00,103.64 396.00,102.40 397.00,101.16 398.00,99.92 399.00,98.68 400.00,97.44 401.00,96.20 402.00,94.96 403.00,93.72 404.00,92.48 405.00,91.24 406.00,90.00 407.00,88.76 408.00,87.52 409.00,86.28 410.00,85.04 411.00,83.80 412.00,82.56 413.00,81.32 414.00,80.08 415.00,78.84 416.00,77.60 417.00,76.36 418.00,75.12 419.00,73.88 420.00,72.64 421.00,71.40 422.00,70.16 423.00,68.92 424.00,67.68 425.00,66.44 426.00,65.20 427.00,63.96 428.00,62.72 429.00,61.48 430.00,60.24 431.00,59.00 432.00,57.76 433.00,56.52 434.00,55.28 435.00,54.04 436.00,52.80 437.00,51.56 438.00,50.32 439.00,49.08 440.00,47.84 441.00,46.60 442.00,45.36 443.00,44.12 444.00,42.88 445.00,41.64 446.00,40.40 447.00,39.16 448.00,37.92 449.00,36.68 450.00,35.44 451.00,34.20 452.00,32.96 453.00,31.72 454.00,30.48 455.00,29.24 456.00,28.00" fill="none" stroke="#a8641a" stroke-width="2.6" stroke-linecap="round" stroke-linejoin="round"/>
<line x1="356.0" y1="152.0" x2="356.0" y2="276" stroke="#1f6e5f" stroke-width="1" stroke-dasharray="3 3"/>
<line x1="56" y1="152.0" x2="356.0" y2="152.0" stroke="#1f6e5f" stroke-width="1" stroke-dasharray="3 3"/>
<circle cx="356.0" cy="152.0" r="4" fill="#1f6e5f"/>
<text x="364.0" y="144.0" font-size="11" fill="#1f6e5f" text-anchor="start" font-weight="600">L(1.5) = 1.5</text>
<text x="56" y="18" font-size="14" fill="#1c201f" font-weight="700" font-family="Georgia,ui-serif,serif">Mean Absolute Error</text>
<text x="456" y="18" font-size="10.5" fill="#565f5b" text-anchor="end">L(e) = |e|</text>
</svg>