<svg viewBox="0 0 480 320" xmlns="http://www.w3.org/2000/svg" font-family="ui-monospace,SFMono-Regular,Menlo,Consolas,monospace">
<rect x="0" y="0" width="480" height="320" fill="#fffef9"/>
<line x1="56.0" y1="28" x2="56.0" y2="276" stroke="#1c201f1f" stroke-width="1"/>
<line x1="156.0" y1="28" x2="156.0" y2="276" stroke="#1c201f1f" stroke-width="1"/>
<line x1="256.0" y1="28" x2="256.0" y2="276" stroke="#1c201f1f" stroke-width="1"/>
<line x1="356.0" y1="28" x2="356.0" y2="276" stroke="#1c201f1f" stroke-width="1"/>
<line x1="456.0" y1="28" x2="456.0" y2="276" stroke="#1c201f1f" stroke-width="1"/>
<line x1="56" y1="276.0" x2="456" y2="276.0" stroke="#1c201f1f" stroke-width="1"/>
<line x1="56" y1="214.0" x2="456" y2="214.0" stroke="#1c201f1f" stroke-width="1"/>
<line x1="56" y1="152.0" x2="456" y2="152.0" stroke="#1c201f1f" stroke-width="1"/>
<line x1="56" y1="90.0" x2="456" y2="90.0" stroke="#1c201f1f" stroke-width="1"/>
<line x1="56" y1="28.0" x2="456" y2="28.0" stroke="#1c201f1f" stroke-width="1"/>
<line x1="256.0" y1="28" x2="256.0" y2="276" stroke="#1c201f4a" stroke-width="1.4"/>
<line x1="56" y1="276.0" x2="456" y2="276.0" stroke="#1c201f4a" stroke-width="1.4"/>
<rect x="56" y="28" width="400" height="248" fill="none" stroke="#1c201f4a" stroke-width="1"/>
<text x="56.0" y="292" font-size="10" fill="#565f5b" text-anchor="middle">-3</text>
<text x="156.0" y="292" font-size="10" fill="#565f5b" text-anchor="middle">-1.5</text>
<text x="256.0" y="292" font-size="10" fill="#565f5b" text-anchor="middle">0</text>
<text x="356.0" y="292" font-size="10" fill="#565f5b" text-anchor="middle">1.5</text>
<text x="456.0" y="292" font-size="10" fill="#565f5b" text-anchor="middle">3</text>
<text x="48" y="279.0" font-size="10" fill="#565f5b" text-anchor="end">0</text>
<text x="48" y="217.0" font-size="10" fill="#565f5b" text-anchor="end">2.25</text>
<text x="48" y="155.0" font-size="10" fill="#565f5b" text-anchor="end">4.5</text>
<text x="48" y="93.0" font-size="10" fill="#565f5b" text-anchor="end">6.75</text>
<text x="48" y="31.0" font-size="10" fill="#565f5b" text-anchor="end">9</text>
<text x="256.0" y="308" font-size="11" fill="#565f5b" text-anchor="middle">error  e = y − ŷ</text>
<text x="16" y="152.0" font-size="11" fill="#565f5b" text-anchor="middle" transform="rotate(-90 16 152.0)">L(e)</text>
<polyline points="56.00,28.00 57.00,30.47 58.00,32.94 59.00,35.38 60.00,37.82 61.00,40.25 62.00,42.66 63.00,45.06 64.00,47.44 65.00,49.82 66.00,52.18 67.00,54.53 68.00,56.87 69.00,59.19 70.00,61.50 71.00,63.81 72.00,66.09 73.00,68.37 74.00,70.63 75.00,72.88 76.00,75.12 77.00,77.35 78.00,79.56 79.00,81.76 80.00,83.95 81.00,86.12 82.00,88.29 83.00,90.44 84.00,92.58 85.00,94.71 86.00,96.82 87.00,98.92 88.00,101.01 89.00,103.09 90.00,105.15 91.00,107.20 92.00,109.24 93.00,111.27 94.00,113.29 95.00,115.29 96.00,117.28 97.00,119.26 98.00,121.22 99.00,123.18 100.00,125.12 101.00,127.04 102.00,128.96 103.00,130.86 104.00,132.76 105.00,134.63 106.00,136.50 107.00,138.35 108.00,140.20 109.00,142.02 110.00,143.84 111.00,145.65 112.00,147.44 113.00,149.22 114.00,150.98 115.00,152.74 116.00,154.48 117.00,156.21 118.00,157.93 119.00,159.63 120.00,161.32 121.00,163.01 122.00,164.67 123.00,166.33 124.00,167.97 125.00,169.60 126.00,171.22 127.00,172.83 128.00,174.42 129.00,176.00 130.00,177.57 131.00,179.12 132.00,180.67 133.00,182.20 134.00,183.72 135.00,185.23 136.00,186.72 137.00,188.20 138.00,189.67 139.00,191.13 140.00,192.57 141.00,194.00 142.00,195.42 143.00,196.83 144.00,198.23 145.00,199.61 146.00,200.98 147.00,202.34 148.00,203.68 149.00,205.02 150.00,206.34 151.00,207.65 152.00,208.94 153.00,210.22 154.00,211.50 155.00,212.75 156.00,214.00 157.00,215.23 158.00,216.46 159.00,217.66 160.00,218.86 161.00,220.05 162.00,221.22 163.00,222.38 164.00,223.52 165.00,224.66 166.00,225.78 167.00,226.89 168.00,227.99 169.00,229.07 170.00,230.14 171.00,231.20 172.00,232.25 173.00,233.29 174.00,234.31 175.00,235.32 176.00,236.32 177.00,237.31 178.00,238.28 179.00,239.24 180.00,240.19 181.00,241.12 182.00,242.05 183.00,242.96 184.00,243.86 185.00,244.75 186.00,245.62 187.00,246.48 188.00,247.33 189.00,248.17 190.00,248.99 191.00,249.80 192.00,250.60 193.00,251.39 194.00,252.17 195.00,252.93 196.00,253.68 197.00,254.42 198.00,255.14 199.00,255.86 200.00,256.56 201.00,257.25 202.00,257.92 203.00,258.58 204.00,259.24 205.00,259.87 206.00,260.50 207.00,261.11 208.00,261.72 209.00,262.30 210.00,262.88 211.00,263.45 212.00,264.00 213.00,264.54 214.00,265.06 215.00,265.58 216.00,266.08 217.00,266.57 218.00,267.05 219.00,267.51 220.00,267.96 221.00,268.40 222.00,268.83 223.00,269.25 224.00,269.65 225.00,270.04 226.00,270.42 227.00,270.79 228.00,271.14 229.00,271.48 230.00,271.81 231.00,272.12 232.00,272.43 233.00,272.72 234.00,273.00 235.00,273.27 236.00,273.52 237.00,273.76 238.00,273.99 239.00,274.21 240.00,274.41 241.00,274.61 242.00,274.78 243.00,274.95 244.00,275.11 245.00,275.25 246.00,275.38 247.00,275.50 248.00,275.60 249.00,275.70 250.00,275.78 251.00,275.85 252.00,275.90 253.00,275.94 254.00,275.98 255.00,275.99 256.00,276.00 257.00,275.99 258.00,275.98 259.00,275.94 260.00,275.90 261.00,275.85 262.00,275.78 263.00,275.70 264.00,275.60 265.00,275.50 266.00,275.38 267.00,275.25 268.00,275.11 269.00,274.95 270.00,274.78 271.00,274.61 272.00,274.41 273.00,274.21 274.00,273.99 275.00,273.76 276.00,273.52 277.00,273.27 278.00,273.00 279.00,272.72 280.00,272.43 281.00,272.12 282.00,271.81 283.00,271.48 284.00,271.14 285.00,270.79 286.00,270.42 287.00,270.04 288.00,269.65 289.00,269.25 290.00,268.83 291.00,268.40 292.00,267.96 293.00,267.51 294.00,267.05 295.00,266.57 296.00,266.08 297.00,265.58 298.00,265.06 299.00,264.54 300.00,264.00 301.00,263.45 302.00,262.88 303.00,262.30 304.00,261.72 305.00,261.11 306.00,260.50 307.00,259.87 308.00,259.24 309.00,258.58 310.00,257.92 311.00,257.25 312.00,256.56 313.00,255.86 314.00,255.14 315.00,254.42 316.00,253.68 317.00,252.93 318.00,252.17 319.00,251.39 320.00,250.60 321.00,249.80 322.00,248.99 323.00,248.17 324.00,247.33 325.00,246.48 326.00,245.62 327.00,244.75 328.00,243.86 329.00,242.96 330.00,242.05 331.00,241.12 332.00,240.19 333.00,239.24 334.00,238.28 335.00,237.31 336.00,236.32 337.00,235.32 338.00,234.31 339.00,233.29 340.00,232.25 341.00,231.20 342.00,230.14 343.00,229.07 344.00,227.99 345.00,226.89 346.00,225.78 347.00,224.66 348.00,223.52 349.00,222.38 350.00,221.22 351.00,220.05 352.00,218.86 353.00,217.66 354.00,216.46 355.00,215.23 356.00,214.00 357.00,212.75 358.00,211.50 359.00,210.22 360.00,208.94 361.00,207.65 362.00,206.34 363.00,205.02 364.00,203.68 365.00,202.34 366.00,200.98 367.00,199.61 368.00,198.23 369.00,196.83 370.00,195.42 371.00,194.01 372.00,192.57 373.00,191.13 374.00,189.67 375.00,188.20 376.00,186.72 377.00,185.23 378.00,183.72 379.00,182.20 380.00,180.67 381.00,179.12 382.00,177.57 383.00,176.00 384.00,174.42 385.00,172.83 386.00,171.22 387.00,169.60 388.00,167.97 389.00,166.33 390.00,164.67 391.00,163.00 392.00,161.32 393.00,159.63 394.00,157.93 395.00,156.21 396.00,154.48 397.00,152.74 398.00,150.98 399.00,149.22 400.00,147.44 401.00,145.65 402.00,143.84 403.00,142.02 404.00,140.20 405.00,138.35 406.00,136.50 407.00,134.63 408.00,132.76 409.00,130.86 410.00,128.96 411.00,127.04 412.00,125.12 413.00,123.18 414.00,121.22 415.00,119.26 416.00,117.28 417.00,115.29 418.00,113.29 419.00,111.27 420.00,109.24 421.00,107.21 422.00,105.15 423.00,103.09 424.00,101.01 425.00,98.92 426.00,96.82 427.00,94.71 428.00,92.58 429.00,90.44 430.00,88.29 431.00,86.12 432.00,83.95 433.00,81.76 434.00,79.56 435.00,77.35 436.00,75.12 437.00,72.88 438.00,70.63 439.00,68.37 440.00,66.09 441.00,63.80 442.00,61.50 443.00,59.19 444.00,56.87 445.00,54.53 446.00,52.18 447.00,49.82 448.00,47.44 449.00,45.06 450.00,42.66 451.00,40.25 452.00,37.82 453.00,35.38 454.00,32.94 455.00,30.47 456.00,28.00" fill="none" stroke="#a8641a" stroke-width="2.6" stroke-linecap="round" stroke-linejoin="round"/>
<line x1="356.0" y1="214.0" x2="356.0" y2="276" stroke="#1f6e5f" stroke-width="1" stroke-dasharray="3 3"/>
<line x1="56" y1="214.0" x2="356.0" y2="214.0" stroke="#1f6e5f" stroke-width="1" stroke-dasharray="3 3"/>
<circle cx="356.0" cy="214.0" r="4" fill="#1f6e5f"/>
<text x="364.0" y="206.0" font-size="11" fill="#1f6e5f" text-anchor="start" font-weight="600">L(1.5) = 2.25</text>
<text x="56" y="18" font-size="14" fill="#1c201f" font-weight="700" font-family="Georgia,ui-serif,serif">Mean Squared Error</text>
<text x="456" y="18" font-size="10.5" fill="#565f5b" text-anchor="end">L(e) = e²</text>
</svg>